<svg xmlns="http://www.w3.org/2000/svg" style="transform: matrix(2.90152, 0, 0, 2.90152, 0, 0); transform-origin: 50% 50%; cursor: move; max-height: none; transition: transform 200ms ease-in-out 0s;" width="2048" height="2048" viewBox="0 0 20480 20480"><g id="l5hkuyQH0YrL7hBffracbni" fill="rgb(255,255,255)" style="transform: none;"><g style="transform: none;"><path id="pkIA6GCvC" d="M0 10240 l0 -10240 10240 0 10240 0 0 10240 0 10240 -10240 0 -10240 0 0 -10240z m9455 6101 c100 -9 -266 -29 -620 -35 -148 -2 -245 -2 -215 0 30 2 102 9 159 15 186 20 552 31 676 20z m2210 -21 c367 -11 772 -28 853 -36 52 -5 66 -16 35 -28 -39 -15 -346 -26 -565 -21 l-238 6 0 -41 c0 -33 4 -42 23 -49 52 -22 306 -135 347 -156 25 -12 77 -34 116 -48 91 -33 383 -179 505 -252 114 -69 283 -192 323 -234 24 -25 38 -31 72 -31 23 0 58 7 77 15 20 8 89 23 154 34 65 11 165 31 223 44 126 30 149 33 360 51 305 27 1208 18 1480 -14 185 -23 258 -33 320 -47 36 -7 90 -18 120 -23 126 -22 225 -98 250 -190 23 -85 -47 -187 -166 -241 -138 -62 -109 -52 -394 -139 -266 -82 -537 -199 -705 -305 -243 -154 -504 -420 -612 -626 -32 -63 -29 -102 26 -279 22 -74 46 -153 52 -175 6 -22 15 -54 20 -71 5 -17 9 -40 9 -52 0 -11 7 -47 15 -79 16 -59 49 -225 65 -323 5 -30 16 -95 24 -145 52 -311 61 -384 81 -685 17 -250 19 -567 5 -707 -5 -54 -14 -161 -20 -238 -14 -168 -36 -358 -50 -440 -6 -33 -15 -87 -20 -120 -15 -98 -29 -186 -40 -245 -5 -30 -15 -80 -20 -110 -19 -101 -55 -281 -80 -390 -4 -19 -13 -57 -19 -85 -24 -114 -84 -321 -172 -595 -27 -85 -61 -189 -74 -231 -14 -42 -25 -90 -25 -108 0 -29 2 -31 38 -31 29 0 57 13 120 55 45 30 95 62 110 70 15 8 47 31 72 50 25 18 48 34 52 34 4 1 16 8 25 16 10 8 59 43 108 79 50 36 119 87 154 113 198 149 191 145 191 120 0 -8 -37 -42 -81 -78 -45 -35 -96 -76 -113 -90 -108 -91 -468 -336 -626 -427 -98 -56 -100 -59 -159 -237 -21 -66 -65 -192 -97 -280 -31 -88 -59 -179 -62 -202 -4 -43 -4 -43 30 -43 66 0 425 157 698 306 190 104 249 133 255 125 9 -16 -255 -171 -494 -291 -162 -81 -399 -180 -480 -201 -53 -13 -91 -48 -91 -83 0 -9 -4 -24 -10 -34 -38 -67 -91 -218 -88 -249 3 -34 6 -37 53 -50 27 -8 62 -24 78 -35 31 -22 64 -21 177 5 36 8 97 20 135 27 39 7 86 16 105 21 162 39 221 50 241 44 22 -7 21 -8 -13 -26 -19 -10 -79 -31 -134 -47 -93 -28 -149 -41 -338 -77 -44 -9 -83 -18 -88 -21 -13 -8 -9 -92 6 -122 94 -184 -45 -469 -268 -548 -59 -22 -179 -19 -251 5 -33 11 -78 21 -100 21 -39 0 -41 -2 -74 -63 -48 -89 -252 -371 -374 -517 -192 -231 -475 -481 -722 -639 -250 -160 -611 -314 -917 -391 -68 -17 -139 -35 -158 -41 -43 -12 -183 -38 -270 -50 -318 -45 -833 -49 -1100 -8 -127 19 -244 41 -320 59 -19 5 -75 18 -125 30 -385 93 -786 274 -1111 503 -147 104 -207 153 -342 282 -241 231 -507 573 -614 789 -29 60 -35 66 -63 66 -17 0 -50 -9 -73 -20 -49 -24 -154 -50 -202 -50 -46 0 -137 24 -194 51 -64 29 -131 103 -173 186 -33 68 -36 78 -35 165 1 56 8 115 18 148 9 30 19 75 21 100 l5 46 -149 17 c-165 20 -402 53 -478 67 -27 5 -81 14 -120 20 -133 21 -286 52 -405 81 -47 11 -98 23 -115 26 -38 7 -55 21 -55 44 0 26 27 25 153 -6 264 -63 1058 -195 1177 -195 25 0 69 10 97 22 50 22 53 25 53 61 0 26 -19 75 -64 165 -35 70 -69 143 -75 164 -14 44 -37 54 -326 148 -80 26 -299 102 -410 143 -41 15 -219 89 -385 159 -185 78 -530 254 -564 287 -42 43 13 23 244 -85 397 -186 725 -322 1040 -429 85 -29 172 -60 192 -69 21 -9 53 -16 73 -16 34 0 35 1 35 41 0 22 -7 53 -15 67 -16 30 -118 269 -159 375 -27 71 -70 182 -79 207 -3 8 -27 26 -53 40 -181 92 -584 332 -704 419 -25 17 -86 59 -136 92 -162 106 -207 159 -59 69 33 -20 85 -50 115 -67 65 -36 107 -60 357 -210 104 -61 220 -132 260 -157 45 -29 83 -46 102 -46 29 0 31 3 31 35 0 19 -13 67 -29 107 -57 145 -141 411 -184 580 -61 240 -66 262 -83 369 -8 52 -19 123 -25 159 -6 36 -14 90 -19 120 -22 137 -60 514 -71 704 -16 273 -6 785 21 1091 25 295 33 355 70 558 5 31 14 81 19 110 72 401 318 1052 547 1444 119 204 371 549 473 648 33 32 41 46 41 75 -1 30 -12 47 -82 120 -297 312 -409 517 -387 705 12 100 25 128 78 178 59 56 70 61 167 87 169 45 324 62 627 67 l287 6 0 -32 c0 -28 3 -31 30 -31 18 0 30 -5 30 -13 0 -10 48 -22 163 -41 144 -25 180 -27 327 -24 164 5 188 8 395 62 33 8 77 15 97 16 21 0 52 9 70 20 18 11 50 20 70 20 35 0 60 4 213 35 39 8 113 19 165 24 84 9 461 52 700 80 47 6 155 19 240 30 85 11 216 27 290 36 291 35 353 44 360 55 15 25 511 29 1135 10z m-3277 -211 c-24 -14 -153 -26 -343 -33 -180 -6 -184 7 -5 18 63 4 151 11 195 15 125 12 173 12 153 0z m-2115 -10 c-15 -15 -173 -23 -277 -14 -141 11 -81 25 114 25 122 0 171 -3 163 -11z m7591 -16 c26 -5 27 -6 12 -22 -15 -14 -45 -16 -247 -14 -127 0 -251 4 -276 8 -72 11 -47 29 48 36 91 7 416 1 463 -8z m-870 -7 l39 -14 -79 -6 c-43 -3 -227 -8 -409 -11 -301 -5 -328 -4 -303 10 38 21 188 32 473 33 180 1 250 -2 279 -12z m-5324 -8 c-14 -6 -69 -13 -122 -15 -86 -5 -98 -4 -98 11 0 14 16 16 123 15 95 0 116 -3 97 -11z m-2950 -143 c245 -26 323 -28 388 -10 55 16 62 16 91 1 17 -9 31 -21 31 -26 0 -5 -12 -31 -26 -57 -81 -151 -305 -257 -460 -218 -150 39 -249 113 -280 211 -13 43 -14 56 -3 75 26 50 23 49 259 24z m1190 -16 c29 -1 26 -3 -17 -9 -46 -7 -179 -6 -258 1 -53 5 108 17 175 13 36 -2 81 -4 100 -5z m7355 -29 c160 -13 665 -30 892 -30 100 0 184 -4 187 -9 8 -13 -166 -20 -368 -15 -99 2 -362 9 -583 14 -385 10 -584 22 -627 37 -63 23 244 25 499 3z m1064 -194 c-9 -8 -98 -13 -93 -5 3 5 26 9 51 9 26 0 44 -2 42 -4z m-939 -66 c-33 -11 -185 -11 -235 -1 -28 6 5 9 110 9 89 0 140 -3 125 -8z"></path><path id="ptjWG83Jd" d="M9857 15984 c-3 -3 -54 -10 -114 -15 -306 -25 -458 -45 -678 -89 -27 -6 -111 -21 -185 -35 -122 -22 -200 -38 -370 -75 -81 -18 -126 -43 -221 -118 -107 -85 -400 -376 -510 -507 -245 -290 -450 -586 -589 -850 -257 -489 -412 -853 -490 -1157 -6 -21 -14 -55 -19 -75 -12 -45 -45 -228 -61 -328 -6 -38 -15 -95 -20 -125 -5 -30 -14 -109 -20 -175 -6 -66 -15 -159 -20 -206 -13 -114 -13 -648 0 -824 20 -260 89 -812 122 -971 6 -28 9 -57 6 -65 -5 -16 -44 183 -58 297 -6 43 -15 111 -20 149 -6 39 -15 104 -20 145 -5 41 -14 113 -20 160 -53 399 -63 907 -25 1250 30 279 45 389 65 495 7 33 16 80 20 105 38 221 112 463 219 715 5 11 26 61 46 110 66 159 308 627 390 750 90 136 277 395 364 502 170 210 404 452 513 531 41 29 48 39 48 68 0 31 -2 34 -31 34 -38 0 -311 -111 -390 -159 -267 -162 -408 -305 -660 -669 -154 -222 -324 -530 -464 -839 -33 -72 -61 -130 -63 -128 -10 9 204 463 313 662 67 124 176 294 222 346 24 27 33 47 33 72 0 33 -2 35 -34 35 -30 0 -47 -12 -118 -79 -80 -76 -215 -232 -268 -309 -14 -20 -53 -76 -86 -123 -124 -173 -281 -450 -374 -659 -126 -280 -190 -460 -261 -730 -18 -68 -68 -317 -88 -435 -7 -38 -16 -95 -21 -125 -5 -30 -12 -73 -16 -95 -4 -22 -9 -34 -11 -27 -3 6 -21 12 -42 12 l-37 0 -12 -72 c-6 -40 -16 -134 -22 -208 -11 -143 -17 -213 -26 -296 -8 -73 14 -114 60 -114 42 0 42 1 56 -210 14 -210 28 -352 40 -430 6 -36 15 -99 20 -140 6 -41 14 -104 20 -140 5 -36 14 -96 19 -135 6 -38 15 -95 22 -125 6 -30 15 -73 19 -95 24 -119 33 -164 40 -205 12 -59 27 -137 36 -177 11 -54 -3 -37 -21 25 -9 31 -21 66 -25 77 -5 11 -11 36 -14 55 -10 71 -18 105 -26 125 -5 11 -11 40 -14 65 -2 25 -9 70 -16 100 -6 30 -15 80 -20 110 -6 30 -15 78 -20 105 -25 127 -100 801 -100 903 0 21 -4 23 -37 20 l-38 -3 0 -305 c0 -448 28 -846 75 -1060 6 -25 14 -65 20 -90 16 -79 29 -134 44 -190 8 -30 24 -91 36 -135 51 -191 74 -254 247 -665 78 -185 262 -558 299 -607 13 -18 47 -43 75 -57 60 -31 188 -104 208 -120 88 -70 705 -368 1016 -490 210 -82 725 -256 759 -256 6 0 48 -12 95 -26 57 -17 80 -28 71 -34 -8 -5 -23 -4 -34 3 -12 6 -59 19 -106 28 -47 10 -101 22 -120 28 -19 6 -69 19 -110 30 -41 11 -167 51 -280 89 -306 105 -501 184 -750 304 -235 114 -288 138 -300 138 -6 0 -31 14 -55 30 -50 34 -105 41 -105 13 0 -14 -6 -11 -28 12 -44 47 -84 78 -127 100 -22 11 -51 28 -64 38 -13 9 -39 17 -57 17 -32 0 -34 -2 -34 -34 0 -22 22 -82 59 -158 32 -68 76 -168 97 -223 21 -55 48 -110 60 -121 11 -12 45 -29 75 -38 30 -9 121 -35 203 -58 128 -37 170 -57 155 -73 -5 -4 -100 20 -154 39 -55 20 -138 36 -185 36 -39 0 -40 -1 -40 -37 l0 -38 -34 50 c-48 72 -69 87 -126 93 l-50 5 0 -41 c0 -29 12 -62 40 -114 22 -40 55 -105 74 -143 18 -39 40 -76 48 -83 22 -18 238 -47 518 -71 290 -25 409 -39 430 -51 38 -23 -375 -7 -672 25 -197 21 -188 23 -188 -25 0 -31 16 -67 73 -167 41 -70 88 -156 105 -189 57 -114 219 -321 483 -618 293 -330 568 -555 879 -719 111 -58 403 -182 522 -221 244 -79 570 -142 866 -167 181 -15 634 -6 792 15 599 82 1075 253 1464 526 190 134 436 367 593 563 174 217 215 276 390 562 154 253 183 309 183 357 l0 40 -82 -6 c-46 -4 -136 -11 -200 -18 -142 -13 -874 -5 -1023 11 -55 7 -145 17 -200 23 l-100 12 60 8 c33 4 98 3 145 -3 125 -14 732 -39 750 -29 8 4 71 10 140 14 123 6 197 13 355 36 44 6 116 15 159 19 93 10 100 16 136 124 13 40 37 99 52 132 20 42 28 76 28 114 l0 53 -42 -5 c-24 -3 -90 -21 -148 -40 -94 -32 -175 -56 -295 -89 -22 -6 -62 -17 -88 -25 -78 -24 -258 -51 -242 -36 11 10 50 22 150 47 83 20 316 86 340 96 20 8 51 16 110 27 36 6 72 41 77 74 2 18 8 23 23 20 11 -2 46 -5 78 -8 51 -4 60 -2 77 19 31 36 54 82 108 223 73 189 93 253 99 318 l6 57 -36 0 c-31 0 -46 -10 -110 -72 -43 -42 -83 -92 -95 -118 -18 -41 -20 -42 -21 -17 -1 23 -5 27 -30 27 -29 0 -112 -39 -146 -69 -11 -10 -33 -25 -50 -33 -45 -23 -314 -162 -365 -190 -25 -13 -63 -31 -85 -40 -22 -9 -83 -36 -135 -60 -52 -25 -156 -68 -230 -97 -159 -62 -179 -70 -202 -82 -10 -5 -25 -9 -33 -9 -8 0 -23 -4 -33 -9 -26 -13 -86 -31 -105 -31 -10 0 -25 -4 -35 -9 -37 -20 -221 -67 -286 -73 -38 -4 -44 16 -9 30 54 19 230 72 242 72 27 0 253 75 391 130 58 23 137 53 175 67 89 32 415 191 509 247 39 24 114 66 166 94 87 45 100 56 160 133 60 78 65 82 68 56 3 -24 7 -27 43 -27 30 0 47 8 76 34 21 18 70 54 108 79 91 59 119 87 155 161 39 79 80 219 80 274 0 41 -1 42 -33 42 l-32 0 51 108 c81 167 194 492 194 556 0 34 -2 36 -34 36 -32 0 -35 -3 -57 -57 -50 -127 -267 -548 -277 -539 -2 2 10 28 26 58 52 94 119 230 167 338 60 135 58 130 95 230 18 47 48 126 67 175 50 131 69 190 92 280 49 198 110 561 111 658 0 47 0 47 -33 47 -31 0 -33 -2 -49 -57 -25 -87 -168 -506 -179 -523 -13 -20 -12 -16 57 210 79 258 100 337 128 480 63 328 71 384 87 655 12 198 6 693 -10 795 -5 36 -15 112 -21 170 -6 58 -15 125 -20 150 -5 25 -16 106 -25 180 -28 235 -77 484 -126 650 -11 36 -25 83 -31 105 -33 116 -109 308 -178 450 -126 256 -336 537 -611 816 -185 188 -313 289 -364 289 -33 0 -35 -2 -35 -32 0 -27 15 -45 102 -127 93 -88 241 -261 328 -385 19 -27 47 -65 61 -85 38 -54 181 -309 205 -366 12 -27 36 -81 54 -120 56 -122 127 -305 168 -440 104 -337 149 -502 139 -512 -3 -3 -9 8 -13 23 -4 16 -10 34 -14 39 -4 6 -20 50 -35 99 -57 191 -189 576 -231 681 -49 118 -160 344 -215 437 -19 31 -49 82 -67 113 -90 154 -227 322 -436 535 -89 91 -193 200 -231 243 -48 55 -89 89 -135 114 -252 137 -335 173 -405 173 l-55 0 0 -35 c0 -30 6 -38 43 -62 207 -130 649 -577 814 -823 16 -25 48 -72 70 -105 108 -160 248 -425 364 -690 100 -230 238 -669 278 -885 7 -36 15 -74 17 -85 5 -21 18 -106 34 -235 6 -41 15 -104 20 -140 17 -106 25 -822 11 -990 -24 -289 -55 -412 -46 -185 20 542 15 938 -15 1130 -5 33 -14 101 -20 150 -11 95 -17 130 -51 315 -41 230 -89 410 -169 645 -144 418 -262 664 -463 965 -119 177 -214 296 -378 470 -242 257 -467 450 -525 450 l-31 0 -6 -142 c-2 -79 -11 -159 -18 -178 -23 -64 -50 -122 -75 -161 -32 -52 -32 -101 1 -123 53 -35 162 -136 219 -202 l59 -69 -84 80 c-157 150 -203 185 -246 185 -33 0 -47 -9 -103 -60 -49 -46 -83 -68 -140 -90 -119 -46 -179 -56 -258 -41 -112 20 -241 59 -307 94 -155 79 -348 259 -491 457 -92 127 -268 391 -297 445 -9 17 -28 43 -41 59 -24 29 -24 29 -107 22 -110 -8 -245 -25 -289 -36 -19 -4 -71 -13 -115 -20 -44 -6 -91 -15 -105 -19 -14 -5 -56 -14 -95 -20 -78 -13 -110 -20 -240 -52 -635 -154 -1172 -569 -1579 -1221 -262 -419 -501 -953 -626 -1398 -7 -25 -16 -56 -20 -70 -8 -24 -52 -204 -86 -348 -9 -40 -19 -70 -21 -68 -10 10 70 362 124 546 14 47 34 117 45 155 23 79 149 412 199 525 58 131 214 441 274 545 136 236 339 520 458 643 128 132 310 299 356 327 9 6 41 28 71 51 160 119 421 243 640 304 25 7 56 16 70 21 137 47 418 99 730 135 233 26 225 24 228 63 2 20 -2 37 -10 42 -15 10 -211 12 -221 3z m-147 -304 c-23 -7 -146 -39 -230 -60 -68 -17 -136 -39 -229 -74 -52 -20 -96 -34 -98 -32 -11 11 228 101 332 125 28 7 66 16 85 21 98 24 117 28 140 28 l25 0 -25 -8z m-620 -195 c0 -7 -58 -35 -72 -35 -7 1 3 9 22 20 35 19 50 24 50 15z m928 -60 c-8 -9 -117 -35 -141 -34 -33 1 71 36 112 38 19 0 32 -1 29 -4z m-538 -114 c-58 -20 -116 -43 -129 -50 -13 -7 -21 -9 -17 -3 13 21 190 91 231 91 11 0 -27 -17 -85 -38z m628 -146 c-6 -7 -97 -23 -193 -35 -178 -23 -316 -54 -377 -86 -17 -9 -32 -13 -35 -11 -7 8 134 73 185 86 23 6 59 16 81 21 21 6 83 10 137 11 55 0 108 4 119 9 22 9 92 13 83 5z m-968 -39 c0 -2 -30 -22 -67 -44 -80 -47 -234 -165 -362 -275 -133 -115 -111 -77 27 46 131 118 224 191 309 242 50 30 93 44 93 31z m-726 -289 c-238 -247 -416 -471 -579 -732 -105 -168 -125 -199 -125 -191 0 12 60 126 120 227 116 195 296 428 495 638 65 69 159 151 173 151 3 0 -35 -42 -84 -93z m1904 18 c-2 -2 -75 -9 -163 -15 -88 -6 -176 -15 -195 -20 -66 -17 -160 -33 -165 -28 -7 7 67 33 135 48 90 19 405 32 388 15z m714 -83 c18 -10 67 -31 108 -47 116 -44 162 -66 156 -72 -6 -6 -43 7 -116 39 -25 11 -54 24 -65 28 -81 31 -151 70 -128 70 7 0 27 -8 45 -18z m831 -187 c155 -158 297 -361 440 -630 47 -88 105 -207 127 -265 23 -58 47 -118 55 -135 7 -16 16 -43 19 -60 11 -44 -9 -19 -27 35 -40 119 -146 342 -242 510 -104 181 -268 410 -382 535 -26 27 -67 72 -92 100 -71 76 2 13 102 -90z m723 -12 c90 -120 236 -357 304 -493 88 -175 198 -436 213 -505 l7 -30 -14 26 c-8 14 -35 75 -60 135 -70 173 -143 330 -197 426 -27 48 -49 90 -49 92 0 5 -69 118 -135 221 -21 33 -64 96 -95 140 -64 90 -73 105 -66 105 3 0 44 -53 92 -117z m-4137 -60 c-7 -10 -37 -47 -66 -83 -112 -139 -275 -373 -368 -530 -21 -36 -60 -99 -86 -140 -74 -120 -223 -415 -272 -540 -109 -280 -133 -347 -163 -456 -8 -32 -20 -75 -26 -94 -17 -61 -29 -114 -38 -165 -5 -27 -14 -75 -19 -105 -59 -313 -71 -656 -47 -1300 6 -142 -8 -45 -24 176 -13 171 -7 669 10 811 5 43 11 103 15 133 3 30 10 75 15 100 5 25 14 74 20 110 25 139 97 411 155 585 29 86 87 240 94 250 4 6 18 35 31 65 74 178 240 481 388 710 127 196 360 490 389 490 3 0 -1 -8 -8 -17z m2646 -68 c17 -8 23 -14 14 -14 -9 -1 -30 6 -45 14 -36 19 -10 19 31 0z m1367 -162 c178 -255 367 -663 477 -1028 5 -16 19 -70 30 -120 12 -49 26 -106 31 -125 27 -97 56 -282 70 -440 5 -52 14 -149 20 -215 12 -133 17 -681 8 -845 -13 -207 -47 -525 -60 -555 -5 -13 -7 -2 -3 30 3 28 15 185 26 350 27 415 19 768 -31 1280 -5 50 -11 99 -14 110 -2 11 -10 49 -16 85 -51 295 -159 680 -257 910 -63 147 -168 351 -261 508 -44 72 -78 132 -77 132 2 0 28 -35 57 -77z m-3834 -29 c-228 -276 -417 -547 -572 -816 -15 -27 -29 -48 -32 -48 -7 0 79 161 106 199 10 14 57 87 105 161 73 113 254 363 275 380 3 3 43 49 89 103 45 53 85 97 88 97 2 0 -24 -34 -59 -76z m1752 -148 c228 -27 419 -74 597 -147 131 -53 350 -175 454 -253 230 -173 469 -495 664 -891 76 -156 90 -192 126 -322 23 -83 34 -137 49 -243 6 -36 15 -94 20 -130 27 -168 34 -661 12 -782 -6 -29 -16 -87 -22 -128 -29 -176 -111 -464 -159 -558 -10 -20 -38 -84 -60 -142 -117 -294 -312 -591 -539 -819 -200 -201 -429 -342 -742 -456 -262 -96 -591 -133 -890 -101 -85 10 -171 21 -190 26 -19 4 -60 14 -90 20 -103 23 -305 93 -405 141 -177 84 -337 197 -500 352 -58 55 -78 67 -104 67 -33 0 -33 -1 -29 -41 l4 -41 -34 38 c-27 32 -134 190 -190 279 -7 11 -29 46 -50 78 -20 33 -65 102 -99 155 -34 54 -70 108 -80 122 -36 46 -133 277 -133 315 0 10 -8 36 -19 59 -47 103 -96 382 -117 661 -13 181 27 624 75 837 28 120 155 421 246 583 157 276 370 552 609 790 221 220 359 317 601 419 153 65 292 104 430 122 123 16 392 11 565 -10z m-1600 -118 c-40 -46 -106 -127 -148 -180 -80 -105 -103 -128 -50 -50 65 95 257 323 266 316 2 -1 -29 -40 -68 -86z m3316 -305 c15 -27 34 -59 42 -73 l14 -25 -18 22 c-22 27 -77 123 -71 123 3 0 18 -21 33 -47z m-4555 -55 c-5 -13 -26 -59 -46 -103 -113 -242 -231 -573 -274 -767 -24 -108 -30 -136 -41 -198 -6 -36 -15 -85 -20 -110 -8 -45 -24 -162 -35 -273 -4 -32 -11 -158 -16 -280 -10 -243 -17 -318 -29 -330 -16 -18 -23 194 -12 393 18 327 75 643 176 976 57 190 197 535 268 662 31 55 44 68 29 30z m4669 -150 c57 -110 49 -111 -10 0 -28 51 -50 96 -50 100 0 12 18 -18 60 -100z m-5757 5 c2 -5 -4 -21 -14 -38 l-19 -30 0 31 c0 31 6 44 21 44 4 0 10 -3 12 -7z m5624 -241 c42 -84 74 -154 72 -156 -2 -2 -43 76 -91 173 -48 97 -80 167 -72 156 9 -11 50 -89 91 -173z m232 23 c0 -5 -11 10 -24 35 -13 25 -24 50 -24 55 0 6 11 -10 24 -35 13 -25 24 -49 24 -55z m899 -20 c41 -121 107 -405 99 -428 -2 -7 -7 6 -11 28 -13 70 -75 317 -101 399 -28 91 -18 92 13 1z m-853 -93 c21 -51 35 -95 33 -97 -5 -5 -78 173 -78 189 0 18 8 0 45 -92z m-6001 -12 c-8 -41 -19 -106 -25 -145 -5 -38 -14 -97 -19 -130 -53 -356 -88 -797 -73 -937 3 -31 2 -73 -3 -95 -7 -30 -10 -11 -15 97 -9 193 10 560 41 780 5 36 14 101 20 145 17 121 42 249 60 305 4 14 11 34 14 44 14 41 13 7 0 -64z m5837 -161 c35 -96 45 -126 36 -119 -8 7 -77 189 -77 203 0 20 10 0 41 -84z m458 31 c1 -13 0 -13 -9 0 -5 8 -9 24 -9 35 l0 20 9 -20 c5 -11 9 -27 9 -35z m1267 -130 c16 -89 18 -140 4 -140 -5 0 -10 1 -10 3 0 1 -7 57 -15 122 -8 66 -14 127 -14 135 1 24 19 -39 35 -120z m-1242 39 c16 -66 32 -143 46 -229 6 -36 15 -87 20 -115 9 -53 22 -140 40 -290 12 -97 30 -479 28 -610 -1 -126 -7 -61 -17 205 -9 223 -25 403 -51 565 -5 33 -14 89 -19 125 -24 155 -52 311 -66 380 -12 55 4 29 19 -31z m656 -205 c6 -43 14 -88 17 -99 3 -11 2 -17 -2 -13 -8 8 -35 142 -35 177 0 46 10 15 20 -65z m-841 11 l0 -20 -9 20 c-5 11 -9 27 -9 35 -1 13 0 13 9 0 5 -8 9 -24 9 -35z m1471 -321 c23 -326 3 -740 -49 -1034 -11 -58 -29 -122 -30 -105 0 6 4 39 10 75 36 222 52 527 46 893 -3 206 -1 315 5 309 5 -5 14 -68 18 -138z m-8076 -103 c-4 -23 -9 -40 -11 -37 -3 3 -2 23 2 46 4 23 9 39 11 37 3 -2 2 -23 -2 -46z m1783 -8 c-3 -21 -12 -78 -20 -128 -8 -49 -20 -128 -26 -175 -6 -47 -15 -112 -20 -145 -8 -56 -9 -57 -10 -17 0 24 3 73 8 110 5 37 15 108 21 157 7 50 19 119 26 155 8 36 14 68 14 73 0 4 3 7 6 7 4 0 4 -17 1 -37z m4890 -86 c14 -97 17 -224 4 -231 -5 -3 -11 34 -15 82 -3 48 -9 123 -12 167 -8 101 7 90 23 -18z m-6693 -97 c-10 -82 -17 -40 -8 48 6 55 9 67 12 42 2 -19 0 -60 -4 -90z m7513 23 c-2 -21 -4 -6 -4 32 0 39 2 55 4 38 2 -18 2 -50 0 -70z m-7349 -410 l-1 -298 -9 264 c-9 235 -6 331 7 331 3 0 4 -134 3 -297z m6556 44 c6 -64 -14 -462 -30 -615 -15 -144 -58 -349 -76 -367 -7 -7 -8 -3 -5 10 36 127 76 571 80 883 1 144 5 189 13 177 6 -8 14 -48 18 -88z m796 -222 c-6 -93 -15 -190 -20 -215 -5 -25 -9 -73 -10 -107 0 -57 -9 -118 -31 -203 -8 -31 -8 -30 -3 10 12 100 24 236 39 440 8 118 18 253 23 300 l7 85 3 -70 c2 -38 -2 -146 -8 -240z m-5793 -32 c-1 -49 -3 -9 -3 87 0 96 2 136 3 88 2 -49 2 -127 0 -175z m-720 135 c-2 -13 -4 -3 -4 22 0 25 2 35 4 23 2 -13 2 -33 0 -45z m5930 -140 c-2 -18 -4 -6 -4 27 0 33 2 48 4 33 2 -15 2 -42 0 -60z m-6487 -240 c5 -57 12 -143 16 -193 4 -49 4 -87 0 -84 -4 4 -11 58 -16 120 -5 63 -12 150 -16 194 -4 44 -3 77 1 73 4 -4 11 -53 15 -110z m560 -107 c0 -68 -2 -122 -4 -120 -2 2 -7 65 -10 139 -5 94 -4 130 3 120 6 -8 11 -71 11 -139z m257 -16 c0 -78 0 -79 -7 -25 -5 30 -8 80 -8 110 0 45 2 50 8 25 4 -16 8 -66 7 -110z m5650 13 c-2 -18 -4 -4 -4 32 0 36 2 50 4 33 2 -18 2 -48 0 -65z m-6705 -116 c20 -129 38 -260 58 -432 7 -52 16 -126 22 -165 19 -135 20 -150 14 -144 -8 8 -20 71 -46 259 -12 80 -25 174 -31 210 -26 170 -44 348 -34 337 5 -4 12 -33 17 -65z m6688 -40 c-6 -47 -14 -89 -17 -92 -3 -3 -3 18 1 45 15 130 19 159 23 147 3 -7 0 -52 -7 -100z m-5591 -316 c1 -16 -1 -27 -3 -25 -7 7 -36 308 -35 359 1 41 36 -267 38 -334z m-280 234 c-1 -51 -3 -58 -9 -35 -12 46 -12 133 0 115 5 -8 9 -44 9 -80z m-552 8 c-2 -13 -4 -5 -4 17 -1 22 1 32 4 23 2 -10 2 -28 0 -40z m1040 -25 c-2 -16 -4 -5 -4 22 0 28 2 40 4 28 2 -13 2 -35 0 -50z m6420 20 c-3 -10 -5 -2 -5 17 0 19 2 27 5 18 2 -10 2 -26 0 -35z m-255 -42 c-6 -20 -14 -49 -17 -65 -3 -15 -9 -26 -12 -23 -3 3 0 30 7 59 19 84 23 95 28 79 2 -7 0 -30 -6 -50z m243 -41 c-4 -23 -9 -39 -11 -37 -3 2 -2 23 2 46 4 23 9 40 11 37 3 -3 2 -23 -2 -46z m-6877 -100 l0 -35 -8 30 c-4 17 -8 46 -8 65 l0 35 8 -30 c4 -16 8 -46 8 -65z m5817 20 c-4 -23 -9 -39 -12 -36 -3 2 -2 23 2 46 4 23 9 39 12 36 3 -2 2 -23 -2 -46z m-19 -116 c-4 -20 -10 -34 -13 -30 -3 3 -2 21 1 42 4 20 10 34 13 30 3 -3 2 -21 -1 -42z m-5778 -64 l0 -25 -8 25 c-4 14 -8 43 -8 65 l0 40 9 -40 c4 -22 8 -51 7 -65z m6818 54 c-4 -20 -10 -34 -12 -31 -3 3 -2 21 2 41 3 21 9 35 11 32 3 -3 2 -21 -1 -42z m-1317 -64 c-22 -85 -58 -183 -59 -165 0 6 13 53 29 105 16 52 32 108 35 124 4 15 9 26 12 23 3 -3 -4 -42 -17 -87z m-174 48 c-4 -18 -16 -60 -27 -93 -23 -66 -81 -192 -74 -160 6 27 100 285 104 285 2 0 1 -15 -3 -32z m-5066 -43 c0 -26 -2 -27 -9 -10 -5 11 -9 34 -9 50 0 26 2 27 9 10 5 -11 9 -33 9 -50z m5496 -30 c-3 -26 -9 -44 -12 -41 -3 3 -2 26 2 51 3 26 9 44 12 41 3 -3 2 -26 -2 -51z m1030 -40 c-23 -78 -28 -65 -8 20 9 39 18 63 20 53 2 -9 -3 -42 -12 -73z m-1049 -61 c-4 -14 -9 -24 -12 -21 -3 2 -2 17 2 31 3 15 9 25 11 22 3 -3 2 -17 -1 -32z m538 -108 c-3 -15 -8 -25 -11 -23 -2 3 -1 17 3 31 3 15 8 25 11 23 2 -3 1 -17 -3 -31z m-6769 -53 c9 -43 23 -105 30 -138 8 -33 17 -78 20 -100 6 -35 26 -113 54 -210 4 -16 14 -50 21 -75 7 -25 21 -70 30 -100 10 -30 27 -89 39 -130 13 -41 31 -97 41 -125 38 -102 80 -227 79 -238 0 -11 -22 40 -76 183 -31 83 -53 150 -93 280 -17 58 -40 132 -50 165 -17 52 -36 131 -70 280 -5 22 -11 51 -15 65 -5 21 -35 207 -35 217 0 1 2 3 4 3 2 0 11 -35 21 -77z m268 22 c5 -28 4 -34 -3 -20 -8 19 -14 73 -6 64 2 -2 6 -22 9 -44z m6482 -55 c-4 -17 -9 -30 -11 -27 -2 2 -1 18 2 36 4 17 9 30 11 27 3 -2 2 -19 -2 -36z m275 -117 c-65 -242 -145 -481 -156 -470 -3 3 2 22 10 43 8 22 29 86 46 144 18 58 45 148 60 200 16 52 36 121 45 153 9 32 19 56 22 53 3 -2 -9 -58 -27 -123z m-296 43 c-3 -15 -8 -25 -11 -23 -2 3 -1 17 3 31 3 15 8 25 11 23 2 -3 1 -17 -3 -31z m-6890 -446 c13 -44 22 -77 46 -170 38 -149 120 -398 196 -593 55 -141 67 -179 36 -117 -85 170 -313 857 -312 941 0 22 17 -8 34 -61z m1157 -399 c133 -188 156 -217 300 -380 72 -81 211 -218 344 -341 50 -46 154 -130 405 -329 19 -15 97 -69 172 -120 76 -51 141 -97 145 -103 7 -13 -123 57 -148 78 -8 8 -19 14 -23 14 -9 0 -209 136 -289 196 -31 24 -60 44 -63 44 -14 0 -184 146 -317 272 -225 214 -428 454 -532 628 -21 36 -45 75 -53 88 -13 20 -13 22 2 16 9 -4 35 -32 57 -63z m5353 1 c11 -18 -352 -429 -587 -664 -144 -145 -326 -309 -487 -439 -30 -24 -109 -80 -175 -123 -66 -44 -127 -84 -135 -90 -8 -6 -5 1 8 15 13 15 49 44 80 65 154 105 373 297 652 574 186 185 272 278 493 533 109 126 137 151 151 129z m346 -94 c-47 -92 -164 -251 -294 -398 -22 -25 -114 -119 -206 -210 -356 -354 -666 -583 -1060 -781 -196 -98 -202 -83 -10 25 47 27 101 58 120 71 19 12 69 42 110 66 98 57 277 177 346 231 225 177 557 488 730 683 71 80 262 328 271 353 3 7 7 11 10 8 2 -2 -5 -24 -17 -48z m-6065 -78 c174 -245 366 -460 580 -648 201 -179 364 -299 605 -448 171 -106 500 -265 713 -344 32 -12 56 -24 54 -26 -2 -3 -15 -1 -28 4 -13 5 -49 17 -79 27 -51 16 -136 51 -237 96 -23 11 -45 19 -48 19 -3 0 -72 33 -153 73 -382 191 -693 412 -988 703 -136 135 -259 269 -278 302 -5 10 -23 33 -40 53 -17 20 -42 53 -56 74 -14 20 -34 48 -46 63 -21 28 -93 175 -76 157 5 -5 40 -53 77 -105z m6639 -211 c-27 -39 -53 -73 -59 -77 -5 -3 -1 7 10 24 64 95 90 132 94 129 2 -3 -18 -36 -45 -76z m-3949 -624 c121 -32 229 -123 309 -260 35 -60 41 -65 72 -65 23 0 34 5 34 14 0 22 93 155 146 208 25 26 76 62 112 80 59 29 76 33 142 32 79 -2 156 -29 210 -73 l25 -21 -25 -19 c-23 -18 -26 -18 -65 -3 -26 11 -68 16 -120 16 -68 0 -90 -5 -145 -30 -150 -70 -242 -247 -269 -519 -17 -166 -22 -151 63 -189 232 -106 399 -251 479 -416 26 -55 31 -75 29 -132 -5 -197 -177 -349 -457 -404 -175 -35 -414 -1 -570 79 -88 45 -182 133 -215 201 -53 110 -48 196 18 301 79 126 260 265 475 365 l67 31 0 135 c0 278 -85 463 -253 549 -60 31 -78 35 -140 35 -45 -1 -93 -8 -127 -20 l-55 -19 -18 21 c-17 21 -17 22 10 50 62 65 153 82 268 53z m-675 -456 c0 -14 -5 -11 -31 17 l-24 27 28 -18 c15 -9 27 -21 27 -26z m-1695 -129 c38 -10 86 -25 105 -34 l35 -16 -50 5 c-65 7 -186 35 -202 48 -19 14 -4 29 20 21 12 -4 53 -15 92 -24z m2230 21 c7 -12 -12 -24 -25 -16 -11 7 -4 25 10 25 5 0 11 -4 15 -9z m1175 -7 c0 -11 -5 -14 -16 -10 -9 3 -18 6 -20 6 -3 0 -2 5 1 10 10 16 35 12 35 -6z m284 -211 c-19 -14 -34 -9 -34 12 0 18 22 25 38 12 11 -9 11 -13 -4 -24z m-1708 -62 c-8 -13 -36 -15 -36 -3 0 4 5 13 12 20 14 14 34 0 24 -17z m-539 -47 c-24 -24 -533 -58 -511 -35 9 10 187 27 454 43 45 3 65 0 57 -8z m2738 -4 c18 -20 17 -20 -12 -20 -34 0 -86 23 -76 33 14 15 71 6 88 -13z m-3675 -30 c0 -5 -7 -10 -15 -10 -8 0 -15 5 -15 10 0 6 7 10 15 10 8 0 15 -4 15 -10z m280 0 c0 -6 -30 -10 -70 -10 -40 0 -70 4 -70 10 0 6 30 10 70 10 40 0 70 -4 70 -10z m3491 -404 c43 -8 138 -89 174 -150 39 -67 55 -153 40 -218 -25 -110 -75 -179 -160 -222 -42 -22 -58 -25 -105 -20 -93 11 -173 71 -218 164 -24 48 -27 67 -27 150 0 116 20 167 94 239 47 46 110 73 151 66 8 -2 31 -6 51 -9z m-3019 -5 c40 -16 118 -92 142 -140 37 -74 51 -161 36 -218 -31 -115 -89 -190 -179 -231 -68 -31 -119 -26 -195 23 -97 62 -128 111 -141 223 -16 140 55 280 170 333 43 20 128 25 167 10z m1172 -865 c-9 -26 -18 -45 -21 -42 -3 3 3 25 12 51 23 59 30 53 9 -9z m521 -53 c4 -33 3 -53 -3 -53 -15 0 -22 26 -22 78 0 60 16 44 25 -25z m-97 -350 c14 -93 15 -110 3 -97 -12 13 -31 97 -31 138 0 63 16 39 28 -41z m-384 -48 c-20 -52 -27 -55 -15 -4 26 100 24 96 29 71 2 -12 -4 -43 -14 -67z m620 -65 l7 -35 -15 31 c-7 17 -16 46 -20 65 l-6 34 14 -30 c7 -16 17 -46 20 -65z"></path><path id="pgxtdya6e" d="M9955 13880 c-16 -4 -57 -8 -90 -9 -88 -2 -267 -38 -365 -73 -352 -127 -677 -382 -947 -739 -99 -132 -151 -214 -219 -348 -78 -154 -127 -298 -174 -506 -5 -22 -11 -51 -15 -65 -47 -201 -50 -706 -6 -930 5 -25 15 -74 21 -110 98 -528 479 -1103 927 -1397 235 -154 495 -244 808 -279 283 -32 572 2 790 93 369 154 668 380 916 693 136 172 204 283 273 445 130 305 179 560 180 935 0 201 -16 441 -33 497 -5 15 -14 55 -20 88 -7 33 -19 89 -27 125 -9 36 -19 81 -23 100 -13 58 -81 229 -126 320 -53 104 -213 370 -280 465 -67 93 -232 263 -328 337 -157 120 -285 189 -467 253 -177 62 -251 77 -495 100 -163 15 -253 17 -300 5z"></path><path id="pBEQUNcpv" d="M10370 6858 c-15 -8 -90 -12 -195 -13 -223 -2 -205 2 -205 -44 0 -46 5 -51 97 -81 65 -21 83 -22 185 -16 108 6 170 18 231 47 26 12 28 16 25 63 l-3 51 -55 2 c-30 1 -66 -3 -80 -9z"></path><path id="p16grCtKsG" d="M10875 15937 l-40 -13 -3 -64 c-2 -35 1 -73 6 -85 6 -11 16 -36 23 -55 30 -83 128 -265 208 -385 109 -165 112 -170 56 -111 -96 102 -259 374 -335 558 -43 106 -74 138 -134 138 -45 0 -46 -1 -46 -32 0 -28 8 -60 30 -123 26 -75 164 -333 239 -446 98 -148 230 -305 284 -337 19 -11 65 -30 101 -42 56 -19 80 -22 151 -17 84 6 110 15 193 66 41 25 42 27 40 73 -2 30 0 44 6 38 6 -6 24 -10 41 -10 23 0 35 6 42 23 55 115 57 120 57 227 l1 105 -45 80 c-96 169 -293 325 -412 325 l-48 0 0 -54 c0 -102 102 -340 226 -526 34 -52 75 -108 89 -123 15 -16 25 -31 22 -33 -3 -3 -39 34 -82 82 -119 136 -226 324 -315 549 -24 61 -50 120 -57 132 -30 46 -219 85 -298 60z"></path><path id="pZtqP8Swy" d="M10530 15666 c0 -32 56 -151 135 -286 54 -93 140 -208 227 -301 76 -82 86 -89 120 -89 36 0 38 2 38 33 0 21 -11 44 -31 67 -51 60 -114 142 -164 215 -109 159 -183 272 -234 358 -19 31 -28 37 -57 37 -32 0 -34 -2 -34 -34z"></path><path id="plAY2M9o3" d="M6610 15606 c0 -88 38 -159 169 -321 l64 -80 -82 80 c-78 76 -231 265 -231 285 0 6 -16 10 -35 10 -34 0 -35 -1 -35 -39 0 -100 87 -237 279 -440 50 -52 53 -53 96 -49 57 7 75 22 75 64 0 31 3 34 29 34 16 0 51 15 77 33 44 28 49 37 52 72 2 36 -2 45 -43 85 -25 25 -91 98 -146 162 -128 150 -151 168 -217 168 l-52 0 0 -64z"></path><path id="pulRXE9pV" d="M6883 15645 c-19 -50 20 -122 132 -242 62 -68 70 -73 108 -73 36 0 48 6 80 39 54 56 51 87 -14 144 -82 72 -216 147 -261 147 -26 0 -41 -5 -45 -15z"></path><path id="p14s7IvSuS" d="M14895 15379 c-507 -28 -563 -44 -1090 -309 -182 -91 -190 -96 -193 -126 -5 -52 99 -204 140 -204 13 0 18 -8 18 -25 0 -30 24 -79 75 -155 21 -30 42 -66 47 -80 5 -14 23 -46 40 -72 25 -41 35 -48 62 -48 l31 0 0 -58 c0 -34 7 -72 18 -94 15 -32 23 -38 50 -38 28 0 42 11 104 83 40 45 85 100 101 122 42 58 205 211 297 280 258 192 298 215 495 295 108 43 218 81 350 120 41 12 89 27 105 35 17 7 45 16 63 19 29 7 32 11 32 43 l0 35 -42 -6 c-24 -3 -86 -8 -138 -11 -87 -6 -93 -5 -76 9 14 11 42 16 95 16 107 0 121 5 121 45 0 32 0 32 -57 37 -88 8 -449 0 -528 -12 -38 -5 -101 -15 -140 -21 -63 -9 -126 -26 -250 -65 -78 -24 -344 -134 -459 -189 -120 -57 -231 -123 -301 -179 -58 -46 -74 -54 -42 -19 16 17 52 46 80 65 29 19 81 54 117 78 108 72 297 159 525 242 132 48 223 72 330 87 44 7 103 16 130 21 28 5 80 12 118 15 l67 7 0 34 0 34 -72 -2 c-40 0 -140 -5 -223 -9z m400 -199 c-3 -5 -28 -10 -55 -10 -27 0 -52 -4 -55 -10 -3 -5 -25 -10 -48 -10 -23 0 -78 -7 -122 -15 -151 -29 -198 -36 -201 -32 -2 2 22 9 53 16 32 7 69 17 83 21 14 4 57 13 95 18 39 6 93 15 120 20 71 13 137 14 130 2z m-550 -99 c-6 -5 -40 -21 -78 -35 -89 -33 -117 -46 -277 -123 -183 -88 -263 -137 -365 -223 -27 -22 -26 -21 5 14 30 33 169 136 184 136 3 0 31 15 63 34 127 74 199 108 306 147 62 22 121 44 132 49 27 12 41 12 30 1z m-235 -322 c-14 -11 -41 -31 -60 -45 -63 -44 -238 -188 -321 -264 -45 -41 -77 -66 -71 -55 13 26 68 77 162 154 119 97 142 115 195 151 28 19 63 45 78 57 16 13 32 23 35 23 4 0 -4 -10 -18 -21z"></path><path id="p1GGnETOBr" d="M14010 15295 c-25 -7 -97 -33 -160 -58 -63 -24 -149 -57 -190 -73 -127 -47 -155 -65 -158 -101 -5 -54 12 -73 64 -73 30 0 56 7 75 20 39 29 285 149 397 195 90 37 92 38 92 71 0 33 -1 34 -37 33 -21 0 -58 -7 -83 -14z"></path><path id="phKxRGOeE" d="M13483 15223 c-7 -2 -13 -20 -13 -39 0 -32 2 -34 34 -34 54 0 66 8 66 46 0 33 -1 34 -37 33 -21 0 -44 -3 -50 -6z"></path><path id="plrH1mesf" d="M6080 9204 c0 -20 7 -64 16 -98 24 -94 103 -328 120 -354 27 -41 94 -82 136 -82 36 0 38 2 38 31 0 17 -9 43 -20 58 -20 29 -140 270 -140 283 0 3 -13 35 -28 70 -16 35 -35 78 -42 96 -11 27 -17 32 -46 32 -32 0 -34 -2 -34 -36z"></path><path id="p155ogNpkU" d="M6300 8550 c0 -16 18 -71 41 -122 23 -51 61 -145 86 -208 85 -220 109 -250 197 -250 l46 0 0 36 c0 24 -24 92 -66 187 -36 82 -72 168 -80 189 -46 130 -110 198 -188 198 -33 0 -36 -2 -36 -30z"></path></g></g><g id="l1EwYTZrflhKhMLGkB83B3M" fill="rgb(0,0,0)" style="transform: none;"><g style="transform: none;"><path id="pooDKO5Tg" d="M9035 16370 c-99 -5 -211 -12 -250 -15 -38 -4 -114 -10 -169 -14 -79 -5 -101 -10 -112 -25 -12 -18 -14 -18 -20 -2 -6 15 -16 16 -78 10 -39 -4 -100 -10 -136 -13 -74 -7 -83 -26 -12 -27 26 0 55 -4 66 -9 15 -6 756 2 956 11 212 9 380 31 387 51 3 8 2 18 -3 23 -14 12 -426 19 -629 10z"></path><path id="peAOKNTlC" d="M9930 16359 c-24 -3 -62 -5 -84 -4 -50 3 -77 -18 -54 -42 13 -13 31 -13 124 -4 60 5 181 11 269 12 88 1 184 6 214 10 30 5 59 5 65 2 6 -4 -27 -12 -74 -19 -47 -7 -87 -11 -91 -9 -3 2 -48 -2 -100 -10 -52 -8 -119 -17 -149 -21 -30 -3 -122 -14 -205 -25 -82 -11 -188 -24 -235 -29 -47 -6 -103 -12 -125 -15 -109 -13 -491 -57 -575 -66 -52 -5 -126 -16 -165 -24 -153 -31 -178 -35 -213 -35 -20 0 -52 -9 -70 -20 -18 -11 -49 -20 -70 -20 -20 -1 -64 -8 -97 -16 -208 -54 -230 -57 -385 -59 -130 -2 -178 2 -300 24 l-145 26 105 6 c119 8 157 19 169 51 9 24 4 51 -8 44 -3 -2 -177 -7 -386 -10 -545 -9 -683 -20 -889 -72 -110 -27 -143 -44 -198 -101 -46 -48 -55 -71 -69 -183 -17 -147 20 -272 128 -435 80 -120 133 -183 292 -347 l55 -57 -60 -63 c-124 -130 -339 -426 -458 -631 -241 -413 -475 -1043 -556 -1497 -6 -36 -16 -85 -20 -110 -9 -42 -16 -93 -40 -275 -10 -73 -20 -185 -25 -270 -2 -27 -6 -93 -10 -145 -4 -52 -9 -122 -10 -155 -5 -93 -5 -715 -1 -765 2 -25 7 -92 11 -150 7 -112 50 -508 65 -600 5 -30 13 -84 19 -120 6 -36 17 -107 25 -159 17 -107 22 -129 83 -369 43 -170 127 -435 185 -581 16 -40 27 -75 26 -76 -2 -2 -34 17 -73 42 -38 24 -154 95 -258 156 -253 151 -293 174 -357 210 -30 17 -71 40 -91 53 -20 12 -78 46 -130 74 -52 29 -110 64 -129 79 -103 77 -150 87 -158 33 -2 -15 15 -34 75 -78 43 -32 92 -65 108 -73 17 -8 49 -31 73 -52 23 -20 84 -64 135 -97 50 -34 112 -76 137 -93 120 -87 523 -327 704 -419 26 -14 50 -32 53 -40 9 -25 52 -136 79 -208 38 -97 142 -341 161 -379 22 -42 14 -48 -33 -28 -22 9 -109 41 -194 70 -194 66 -414 151 -640 248 -189 81 -649 294 -664 308 -5 4 -19 1 -32 -8 -29 -19 -33 -72 -6 -96 36 -33 389 -212 562 -285 166 -70 344 -144 385 -159 111 -41 330 -117 410 -143 289 -94 312 -104 326 -148 6 -21 40 -94 75 -164 35 -70 64 -131 64 -135 0 -5 -25 -19 -56 -32 l-55 -24 -157 22 c-371 53 -798 130 -1059 190 -123 28 -162 19 -163 -39 0 -38 25 -67 62 -73 18 -3 71 -15 118 -26 118 -29 271 -59 405 -81 39 -6 93 -15 120 -20 49 -9 109 -18 170 -26 17 -2 59 -8 95 -13 36 -6 132 -18 213 -28 141 -16 148 -18 142 -38 -33 -106 -38 -140 -39 -246 0 -115 1 -118 36 -190 42 -85 110 -158 174 -188 59 -28 149 -53 203 -57 53 -3 195 28 253 56 23 11 42 19 44 17 1 -1 16 -31 34 -67 135 -270 467 -671 765 -925 149 -128 403 -290 630 -403 114 -56 354 -151 482 -190 85 -26 134 -39 313 -82 76 -18 193 -40 320 -59 270 -42 839 -38 1160 8 87 12 227 38 270 50 19 6 90 24 158 41 306 77 667 231 917 391 247 158 530 408 722 639 118 141 323 424 373 515 19 33 35 62 37 64 1 2 33 -5 70 -17 248 -75 456 4 566 215 66 126 71 265 16 400 -9 22 -10 36 -3 43 5 5 50 17 99 26 222 40 457 108 490 140 54 54 -39 94 -148 63 -64 -17 -170 -39 -387 -80 -30 -6 -67 -15 -82 -21 -22 -8 -32 -6 -55 10 -15 11 -48 26 -73 33 -25 7 -49 16 -53 19 -7 6 55 171 83 222 6 10 10 25 10 34 0 35 38 70 91 83 79 20 316 119 470 196 164 82 457 249 501 285 32 27 32 27 15 54 -34 51 -36 50 -277 -81 -184 -100 -471 -238 -589 -284 -69 -27 -126 -48 -127 -46 -3 3 57 177 113 327 19 52 48 138 64 190 16 52 36 104 44 116 7 12 44 38 82 59 140 77 464 296 626 424 163 128 227 184 227 197 0 27 -32 64 -55 64 -21 0 -71 -33 -217 -143 -34 -26 -103 -77 -153 -113 -49 -36 -98 -71 -108 -79 -9 -8 -19 -15 -22 -15 -2 0 -25 -15 -51 -32 -47 -34 -107 -73 -215 -142 -33 -21 -62 -36 -65 -33 -3 2 2 22 10 43 8 22 41 125 74 229 107 336 159 515 183 630 6 28 15 66 19 85 25 109 61 289 80 390 5 30 15 80 20 110 11 59 25 147 40 245 5 33 14 87 20 120 14 82 36 272 50 440 6 77 15 184 20 238 14 142 12 518 -5 767 -20 301 -29 374 -81 685 -8 50 -19 115 -24 145 -16 98 -49 264 -65 323 -8 32 -15 68 -15 79 0 12 -4 35 -9 52 -5 17 -15 51 -22 76 -13 51 -35 126 -74 252 l-27 88 25 49 c51 96 117 183 239 315 262 281 583 464 1078 616 285 87 256 77 394 139 83 38 137 91 160 157 28 83 16 158 -38 228 -31 41 -131 93 -201 105 -28 5 -84 16 -125 24 -104 22 -210 36 -430 58 -161 16 -1207 23 -1364 10 -230 -20 -319 -32 -426 -58 -58 -13 -156 -33 -219 -43 -63 -11 -136 -27 -162 -36 l-48 -18 -48 45 c-62 58 -193 152 -312 223 -122 74 -413 220 -505 253 -39 14 -91 36 -116 48 -41 21 -295 134 -347 156 -13 5 -23 12 -23 16 0 5 161 8 358 7 196 0 361 2 367 5 5 2 20 6 33 7 45 5 133 47 130 63 -4 21 -103 37 -273 45 -566 25 -1185 42 -1405 39 -187 -2 -678 -2 -880 0 -74 1 -155 -1 -180 -4z m119 -408 c23 -14 -4 -22 -107 -32 -170 -15 -531 -69 -657 -98 -55 -13 -155 -40 -185 -50 -14 -5 -45 -14 -70 -21 -219 -61 -480 -185 -640 -304 -30 -23 -62 -45 -71 -51 -46 -28 -228 -195 -356 -327 -119 -123 -322 -407 -458 -643 -60 -104 -216 -414 -274 -545 -50 -113 -176 -446 -199 -525 -11 -38 -31 -108 -45 -155 -22 -76 -51 -189 -93 -365 -19 -84 -43 -221 -58 -342 -12 -99 -12 -103 7 -109 10 -3 23 -2 27 3 9 8 28 78 69 253 45 190 83 346 91 370 4 14 13 45 20 70 100 355 262 744 473 1135 442 819 1015 1310 1732 1484 130 32 162 39 240 52 39 6 81 15 95 20 14 4 61 13 105 19 44 7 96 16 115 20 31 8 118 19 265 35 47 5 51 3 76 -27 14 -18 32 -44 39 -58 24 -47 204 -315 294 -440 143 -198 336 -378 491 -457 61 -32 182 -70 293 -92 165 -34 353 18 472 129 36 33 69 60 73 60 13 0 138 -109 270 -236 70 -68 131 -124 135 -124 4 0 16 7 27 16 19 14 19 15 1 49 -30 55 -205 244 -287 310 -41 32 -78 62 -82 66 -5 4 3 25 17 47 73 117 100 220 97 381 -2 84 1 102 11 94 199 -152 296 -240 488 -444 216 -230 358 -420 516 -694 96 -166 142 -262 239 -505 108 -270 204 -600 254 -880 34 -184 40 -220 51 -315 6 -49 15 -119 20 -155 31 -211 37 -567 15 -1004 -8 -164 -13 -302 -10 -306 9 -14 44 -18 53 -6 10 13 38 129 47 196 31 229 35 1001 5 1220 -6 47 -16 117 -20 155 -15 117 -29 209 -34 230 -2 11 -10 49 -17 85 -40 216 -178 655 -278 885 -116 265 -256 530 -364 690 -22 33 -54 80 -70 105 -166 247 -601 687 -817 826 -42 26 -43 29 -21 32 36 6 160 -50 381 -171 46 -25 87 -59 135 -114 38 -43 142 -152 231 -243 209 -213 346 -381 436 -535 18 -31 48 -82 67 -113 55 -93 166 -319 215 -437 42 -105 173 -489 231 -681 15 -49 30 -93 34 -99 3 -5 13 -30 21 -54 20 -56 45 -74 66 -46 29 39 2 158 -138 610 -42 135 -112 319 -168 440 -18 39 -42 93 -54 120 -24 57 -167 312 -205 366 -14 20 -42 58 -61 85 -88 124 -236 298 -330 387 -57 53 -100 97 -97 97 23 0 206 -157 336 -289 275 -279 485 -560 611 -816 69 -142 145 -334 178 -450 6 -22 20 -69 31 -105 49 -166 98 -415 126 -650 9 -74 20 -155 25 -180 5 -25 14 -92 20 -150 6 -58 16 -134 21 -170 16 -105 22 -540 10 -735 -16 -271 -24 -327 -87 -655 -35 -179 -111 -446 -224 -783 -52 -152 -62 -217 -35 -217 20 0 38 30 96 161 44 99 163 433 219 614 30 96 24 25 -19 -230 -53 -311 -83 -426 -164 -640 -19 -49 -49 -128 -67 -175 -37 -100 -35 -95 -95 -230 -47 -107 -79 -172 -177 -360 -103 -198 -153 -285 -225 -399 -76 -119 -87 -143 -81 -182 4 -23 6 -22 46 20 67 71 207 286 365 563 42 72 191 376 217 441 35 89 35 60 -1 -49 -146 -450 -212 -569 -563 -1009 -66 -82 -134 -168 -151 -190 -21 -26 -58 -53 -106 -77 -41 -21 -117 -63 -169 -94 -116 -69 -430 -223 -525 -257 -38 -14 -117 -44 -175 -67 -138 -55 -364 -130 -391 -130 -17 0 -205 -58 -246 -76 -26 -11 -33 -19 -33 -43 0 -44 20 -54 87 -46 88 10 264 54 305 76 10 5 25 9 35 9 19 0 79 18 105 31 10 5 25 9 33 9 8 0 23 4 33 9 23 12 43 20 202 82 74 29 178 72 230 97 52 24 113 51 135 60 22 9 60 27 85 40 189 101 330 169 331 159 0 -7 4 -2 9 11 5 12 16 22 24 22 8 0 27 11 43 24 32 27 123 78 123 68 0 -3 -7 -13 -15 -22 -9 -10 -19 -34 -22 -54 -5 -31 -3 -36 15 -36 24 0 87 63 103 104 17 43 69 106 130 157 l51 43 -7 -34 c-12 -53 -42 -143 -97 -285 -95 -246 -118 -271 -208 -224 -39 21 -42 21 -60 4 -11 -10 -20 -27 -20 -37 0 -27 -40 -65 -75 -71 -59 -11 -90 -19 -110 -27 -24 -10 -256 -75 -340 -96 -158 -39 -174 -49 -161 -98 7 -28 7 -28 69 -21 34 4 72 11 85 16 13 5 36 9 52 9 15 0 59 9 96 20 38 11 85 25 104 30 144 39 359 106 403 124 26 12 22 -28 -11 -99 -15 -33 -39 -92 -52 -132 -36 -108 -43 -114 -136 -124 -43 -4 -113 -13 -154 -19 -141 -20 -255 -32 -380 -40 -69 -5 -129 -10 -135 -10 -61 -8 -551 17 -763 39 -40 4 -76 3 -78 -1 -9 -14 -37 -9 -59 12 -15 14 -37 20 -79 22 -50 2 -61 -1 -77 -20 -39 -49 4 -72 171 -96 63 -9 151 -18 195 -21 44 -3 91 -7 105 -10 97 -18 881 -22 1037 -6 145 15 213 19 213 10 0 -34 -338 -585 -444 -724 -203 -264 -354 -427 -552 -590 -195 -162 -330 -250 -519 -341 -455 -217 -931 -328 -1467 -341 -390 -10 -703 27 -1068 123 -175 47 -190 52 -398 135 -299 119 -501 235 -734 421 -130 105 -306 275 -447 434 -108 121 -156 178 -293 344 -83 102 -157 207 -190 274 -17 33 -64 119 -105 189 -40 70 -73 132 -73 137 0 10 12 9 123 -6 126 -17 425 -34 592 -34 l161 0 -4 34 c-2 19 -10 37 -18 40 -23 9 -170 25 -424 47 -281 24 -496 53 -518 72 -8 6 -24 32 -35 57 -11 25 -41 83 -67 130 -27 47 -51 96 -55 108 -6 22 -5 23 17 17 12 -4 31 -15 42 -24 20 -17 156 -216 156 -227 0 -13 33 -44 47 -44 7 0 18 11 24 23 9 20 4 37 -36 111 -26 48 -45 89 -42 92 6 6 125 -15 148 -27 29 -14 168 -49 198 -49 23 0 30 5 34 27 11 57 0 65 -159 111 -82 23 -173 49 -203 58 -30 9 -64 26 -75 38 -12 11 -39 66 -60 121 -21 55 -65 156 -98 224 -32 68 -57 125 -55 127 2 3 15 -4 28 -13 13 -10 42 -27 64 -38 22 -11 54 -32 70 -47 17 -16 33 -28 37 -28 3 0 27 -32 52 -70 32 -48 53 -70 66 -70 11 0 20 1 20 3 0 1 -7 20 -15 42 -26 72 -21 80 29 45 25 -16 50 -30 56 -30 12 0 65 -24 300 -138 249 -120 444 -199 750 -304 113 -38 239 -78 280 -89 41 -11 91 -24 110 -30 19 -6 74 -18 121 -28 48 -9 99 -25 113 -34 32 -22 44 -21 83 3 30 18 32 22 21 45 -9 20 -28 30 -93 50 -44 14 -85 25 -91 25 -34 0 -549 174 -759 256 -311 122 -928 420 -1016 490 -20 16 -148 89 -208 120 -28 14 -62 39 -75 57 -37 49 -221 422 -299 607 -173 411 -196 474 -247 665 -12 44 -28 105 -36 135 -16 58 -30 118 -43 185 -5 22 -15 74 -24 115 -44 212 -65 488 -74 963 -4 221 -2 312 6 320 8 8 11 5 11 -13 0 -103 75 -777 100 -905 5 -27 14 -75 20 -105 5 -30 14 -80 20 -110 7 -30 14 -75 16 -100 3 -25 9 -54 14 -65 8 -20 16 -54 26 -125 3 -19 9 -44 14 -55 4 -11 16 -48 26 -83 17 -61 19 -63 49 -60 30 3 30 4 29 58 0 30 -6 82 -13 115 -6 33 -16 80 -20 105 -8 41 -17 86 -41 205 -4 22 -13 65 -19 95 -7 30 -16 87 -22 125 -5 39 -14 99 -19 135 -6 36 -12 90 -15 120 -3 30 -10 75 -15 100 -21 104 -32 221 -56 574 -8 120 -16 139 -53 131 -26 -5 -32 -2 -45 24 -19 36 -20 52 -5 84 8 17 17 23 33 20 44 -9 54 22 76 252 10 103 23 199 40 295 12 69 27 158 39 235 13 85 61 313 80 385 71 270 135 450 261 730 93 209 250 486 374 659 33 47 72 103 86 123 71 105 262 314 344 378 18 14 19 14 8 -6 -6 -11 -19 -27 -28 -35 -25 -21 -156 -225 -220 -342 -133 -246 -290 -586 -343 -744 -36 -107 -39 -143 -13 -143 35 0 48 20 111 165 210 484 387 795 667 1171 185 249 412 432 663 538 153 64 211 86 211 82 0 -2 -22 -20 -48 -38 -109 -79 -343 -321 -513 -531 -87 -107 -274 -366 -364 -502 -82 -123 -324 -591 -390 -750 -20 -49 -41 -99 -46 -110 -75 -179 -122 -313 -167 -485 -28 -108 -37 -151 -62 -282 -5 -29 -14 -75 -19 -103 -9 -46 -14 -84 -41 -302 -11 -87 -26 -250 -36 -393 -18 -257 3 -732 46 -1060 6 -47 15 -119 20 -160 5 -41 14 -106 20 -145 5 -38 15 -108 20 -154 10 -78 47 -278 70 -378 48 -205 63 -248 86 -248 17 0 19 8 19 60 -1 33 -6 87 -13 120 -70 350 -146 900 -172 1250 -13 176 -13 651 0 764 5 47 14 140 20 206 6 66 15 145 20 175 5 30 14 87 20 125 16 100 49 283 61 328 5 20 13 54 19 75 78 304 233 668 490 1157 139 264 344 560 589 850 110 131 403 422 510 507 95 75 140 100 221 118 170 37 248 53 370 75 74 14 158 29 185 35 220 44 372 64 678 89 60 5 111 12 114 15 10 9 146 7 162 -3z m1013 -62 c42 -13 72 -28 80 -42 8 -12 36 -76 62 -142 95 -240 213 -438 340 -569 42 -44 76 -82 76 -85 -1 -7 -69 -50 -116 -74 -57 -29 -141 -32 -213 -7 -36 13 -80 32 -98 43 -54 31 -186 189 -284 336 -75 113 -214 372 -239 446 -35 101 -34 108 7 85 28 -16 51 -56 131 -230 93 -202 223 -396 356 -532 81 -84 179 -149 197 -131 10 10 -5 31 -102 150 -125 153 -317 473 -368 613 -7 19 -17 44 -23 56 -5 11 -8 36 -6 55 3 29 8 35 43 46 44 13 60 11 157 -18z m364 -103 c96 -46 232 -182 294 -291 43 -76 45 -84 44 -155 -1 -55 -7 -87 -22 -119 -12 -25 -22 -50 -22 -55 0 -6 -7 -19 -14 -29 -13 -16 -17 -15 -56 25 -94 95 -232 336 -296 517 -56 154 -48 165 72 107z m-835 -153 c51 -86 125 -199 234 -358 47 -69 104 -143 166 -217 59 -72 13 -38 -69 51 -87 93 -173 208 -227 301 -34 58 -135 250 -135 256 0 12 11 0 31 -33z m-3875 -18 c18 -14 67 -67 110 -117 43 -51 107 -123 143 -160 36 -37 66 -73 66 -80 0 -7 -22 -27 -48 -45 -38 -26 -52 -30 -65 -22 -20 13 -162 180 -196 230 -82 123 -111 219 -64 219 11 0 36 -11 54 -25z m316 -42 c43 -26 100 -67 128 -91 l51 -44 -38 -39 c-21 -21 -43 -39 -50 -39 -6 0 -41 33 -78 73 -93 100 -143 175 -127 191 9 9 27 1 114 -51z m-456 -143 c71 -94 273 -300 295 -300 19 0 4 -25 -25 -38 -26 -13 -29 -11 -77 40 -143 150 -235 276 -265 361 -14 40 -18 75 -6 47 4 -9 39 -58 78 -110z m8529 -81 c-74 -12 -167 -25 -265 -40 -105 -16 -197 -40 -325 -87 -213 -77 -425 -173 -507 -230 -24 -16 -72 -48 -108 -72 -89 -58 -130 -99 -130 -129 l0 -24 -25 23 c-14 13 -43 52 -64 86 l-40 64 62 34 c64 36 367 184 473 231 167 75 299 110 469 124 141 12 403 28 475 28 42 0 40 0 -15 -8z m-1006 -74 c-3 -2 -50 -23 -104 -46 -118 -49 -344 -160 -384 -189 -36 -25 -57 -25 -70 -1 -8 13 -7 22 2 29 16 13 91 46 163 73 33 11 111 41 174 66 131 52 234 84 219 68z m1435 -15 c74 0 25 -15 -77 -22 -264 -21 -435 -42 -537 -68 -204 -51 -235 -60 -381 -113 -92 -34 -168 -71 -292 -143 -32 -19 -60 -34 -63 -34 -2 0 -34 -20 -69 -43 -86 -58 -194 -162 -196 -190 -4 -41 1 -67 12 -67 5 0 42 26 82 57 168 135 213 163 407 256 160 77 188 90 277 123 38 14 73 30 79 35 5 4 50 15 100 24 49 8 125 22 169 30 44 8 99 15 122 15 23 0 45 5 48 10 3 6 28 10 55 10 27 0 52 5 55 10 4 6 13 7 23 1 9 -5 58 -7 107 -5 84 4 88 3 60 -10 -16 -8 -64 -24 -105 -36 -293 -86 -497 -171 -640 -269 -261 -176 -409 -307 -553 -486 -26 -33 -64 -80 -86 -104 l-38 -43 -16 31 c-39 78 -39 79 85 192 97 89 192 169 306 254 15 11 50 38 77 61 28 22 72 56 100 75 111 77 155 120 155 153 l0 25 -55 -24 c-59 -27 -97 -47 -105 -56 -3 -3 -45 -33 -95 -67 -297 -203 -477 -351 -532 -438 -12 -18 -13 -18 -32 6 -11 14 -37 57 -57 95 -20 39 -46 84 -59 100 -12 17 -32 50 -45 75 l-23 44 22 16 c12 8 38 28 59 44 134 104 319 201 586 308 153 61 175 69 301 106 161 47 382 70 625 65 58 -2 123 -3 144 -3z m-9680 -2882 c-3 -12 -12 -60 -19 -107 -9 -64 -13 -75 -14 -43 -1 53 21 172 32 172 5 0 5 -10 1 -22z m-36 -323 c-1 -63 -4 -119 -8 -125 -6 -10 -7 64 -2 188 4 99 12 52 10 -63z m352 -2968 c16 -38 30 -72 30 -75 0 -13 120 -254 141 -284 11 -15 16 -28 11 -28 -15 0 -90 58 -106 82 -25 39 -138 392 -135 424 0 9 8 -7 59 -119z m7610 -149 c-29 -104 -80 -216 -117 -252 -15 -16 -59 -49 -98 -73 -38 -25 -87 -61 -108 -79 -65 -59 -60 -37 10 46 37 45 90 109 116 143 26 34 62 80 80 102 55 67 109 148 119 178 6 15 13 26 16 23 3 -3 -5 -43 -18 -88z m-7400 -410 c30 -17 49 -40 74 -88 18 -36 37 -76 41 -90 4 -14 36 -89 70 -167 79 -178 81 -183 60 -183 -33 0 -73 34 -98 84 -14 28 -52 119 -85 201 -33 83 -71 176 -86 208 -14 31 -23 57 -20 57 3 0 23 -10 44 -22z"></path><path id="prhLq5oCA" d="M9710 15724 c-37 -6 -130 -24 -170 -34 -19 -5 -57 -14 -85 -21 -74 -17 -229 -72 -315 -111 -41 -19 -94 -42 -117 -52 -48 -21 -56 -36 -43 -71 15 -38 31 -39 96 -5 86 45 320 131 429 159 319 79 365 97 332 130 -10 10 -72 13 -127 5z"></path><path id="plEHDNt2X" d="M9857 15434 c-81 -27 -97 -39 -97 -70 0 -29 12 -30 125 -9 140 26 225 52 225 68 0 29 -25 37 -104 36 -56 -1 -102 -9 -149 -25z"></path><path id="p10Upwtk9i" d="M8830 15381 c-36 -22 -95 -65 -133 -96 -60 -50 -67 -58 -61 -83 4 -15 9 -30 11 -34 8 -14 39 -8 59 10 51 48 235 192 245 192 6 0 9 10 7 23 -5 38 -53 33 -128 -12z"></path><path id="pC1XgIIUB" d="M9550 15383 c-65 -11 -189 -56 -237 -87 -36 -23 -45 -64 -18 -86 13 -11 26 -9 73 14 31 15 104 44 162 64 109 38 126 54 95 86 -16 16 -27 17 -75 9z"></path><path id="pGoPEcXuY" d="M12056 15221 c-6 -10 69 -108 143 -186 25 -27 67 -75 91 -105 92 -111 96 -115 125 -102 14 6 25 19 25 27 0 16 -18 56 -29 65 -3 3 -26 31 -50 64 -51 68 -161 178 -211 211 -40 26 -86 39 -94 26z"></path><path id="p1E7IxrJP3" d="M10095 15209 c-27 -5 -69 -14 -93 -19 -23 -6 -83 -10 -132 -10 -93 0 -143 -9 -245 -42 -58 -20 -185 -84 -185 -94 0 -10 23 -49 32 -55 9 -6 74 13 108 31 47 25 200 59 365 80 170 21 250 44 262 76 4 11 -1 22 -12 30 -21 15 -28 16 -100 3z"></path><path id="pDjHF4qhl" d="M9040 15137 c-99 -56 -189 -125 -337 -258 -132 -118 -144 -140 -105 -188 l17 -22 121 103 c152 130 266 218 363 278 49 30 77 54 79 68 3 20 -32 62 -53 62 -6 0 -44 -19 -85 -43z"></path><path id="pxhkC5qNo" d="M8438 14940 c-53 -35 -173 -158 -311 -319 -221 -257 -446 -614 -450 -715 -2 -39 -1 -41 31 -44 17 -2 32 1 32 6 0 5 13 28 28 53 16 24 60 94 97 154 164 261 332 474 583 736 94 99 109 129 73 149 -28 14 -33 13 -83 -20z"></path><path id="p133GLriJX" d="M9197 14884 c-61 -31 -137 -105 -137 -131 0 -39 30 -35 102 14 91 62 122 98 108 124 -13 24 -14 24 -73 -7z"></path><path id="p13WJtIOM2" d="M10065 14889 c-155 -10 -245 -31 -312 -71 -26 -15 -33 -26 -33 -50 0 -29 1 -30 38 -25 38 5 153 28 229 47 56 13 359 33 389 26 14 -4 41 -4 60 0 27 5 34 11 34 30 0 18 -7 24 -32 29 -44 7 -237 25 -252 24 -6 -1 -60 -5 -121 -10z"></path><path id="p1Hh5LjkrO" d="M10870 14827 c0 -17 10 -32 28 -44 27 -19 150 -79 187 -93 11 -4 40 -17 65 -28 25 -11 63 -26 85 -33 22 -7 44 -17 49 -21 6 -4 17 -8 26 -8 10 0 31 -7 49 -16 25 -13 35 -13 46 -4 49 41 -13 90 -210 165 -38 15 -92 37 -120 49 -82 37 -118 49 -162 53 -41 5 -43 4 -43 -20z"></path><path id="pBlN8OwJq" d="M11656 14783 c-23 -23 0 -57 128 -196 213 -233 376 -474 537 -798 65 -131 119 -254 119 -271 0 -4 8 -27 19 -51 10 -23 24 -57 31 -74 10 -27 18 -33 41 -33 19 0 30 6 34 20 6 18 -36 183 -56 220 -4 8 -27 62 -49 120 -79 203 -255 509 -413 718 -72 96 -236 269 -297 314 -37 27 -83 42 -94 31z"></path><path id="prF9ncit1" d="M12456 14724 c-9 -8 -16 -19 -16 -23 0 -9 46 -81 161 -253 52 -79 108 -165 124 -193 95 -163 177 -328 245 -492 104 -249 103 -248 139 -246 18 0 35 4 39 7 21 21 -100 331 -228 586 -68 136 -214 373 -304 492 -103 139 -126 157 -160 122z"></path><path id="p1E4friBOd" d="M9440 14575 c-61 -31 -94 -67 -85 -94 8 -28 40 -27 75 2 46 36 79 58 84 55 2 -2 13 6 25 16 16 15 18 22 10 33 -16 19 -57 14 -109 -12z"></path><path id="pQJbwli1e" d="M10275 14590 c-12 -19 6 -50 28 -51 136 -5 300 0 309 9 23 23 0 39 -69 45 -104 10 -261 8 -268 -3z"></path><path id="p1Fb8FC0LO" d="M8428 14563 c-58 -45 -171 -182 -309 -374 -157 -219 -376 -606 -469 -829 -13 -30 -27 -59 -31 -65 -7 -10 -65 -164 -94 -250 -52 -155 -130 -443 -150 -555 -22 -122 -27 -156 -41 -250 -34 -247 -42 -821 -15 -1115 10 -106 15 -156 38 -345 8 -73 32 -90 53 -40 13 30 7 173 -18 460 -9 112 -8 655 2 795 8 112 28 276 47 375 5 30 14 78 19 105 9 51 21 104 38 165 6 19 18 62 26 94 30 109 54 176 163 456 49 125 198 420 272 540 26 41 65 104 86 140 98 164 268 408 381 545 33 41 69 91 80 110 19 36 19 37 0 51 -27 20 -37 18 -78 -13z"></path><path id="puHe4M3bn" d="M10997 14479 c-12 -17 -14 -26 -5 -36 13 -16 63 -39 98 -46 14 -2 46 -13 72 -23 38 -15 50 -16 60 -6 33 33 -73 114 -168 128 -36 5 -44 3 -57 -17z"></path><path id="p87jzD510" d="M12294 14486 c-6 -17 24 -79 76 -156 103 -153 259 -444 343 -641 97 -228 207 -614 257 -909 6 -36 14 -74 16 -85 3 -11 9 -63 14 -115 5 -52 14 -135 19 -185 6 -49 15 -232 21 -405 10 -284 9 -345 -10 -620 -11 -168 -25 -356 -31 -418 -8 -85 -8 -116 1 -127 25 -30 46 0 69 95 11 52 39 253 39 290 0 14 3 50 6 80 23 231 27 868 6 1100 -6 69 -13 157 -15 195 -3 39 -9 90 -14 115 -5 25 -13 70 -16 100 -7 61 -30 186 -45 240 -5 19 -19 76 -31 125 -69 293 -237 703 -400 982 -79 133 -210 314 -244 335 -36 22 -54 23 -61 4z"></path><path id="pCXRgIK4d" d="M8649 14353 c-25 -27 -72 -79 -104 -118 -33 -38 -62 -72 -66 -75 -21 -19 -202 -269 -274 -380 -48 -74 -101 -155 -117 -180 -17 -25 -74 -135 -129 -245 -101 -205 -143 -325 -122 -346 23 -23 50 12 127 168 43 87 91 178 106 203 15 25 46 79 71 120 123 210 308 468 537 748 45 55 82 105 82 111 0 12 -39 41 -55 41 -6 0 -31 -21 -56 -47z"></path><path id="pGK86ENSN" d="M9664 14386 c-59 -9 -92 -19 -123 -39 -40 -27 -42 -30 -28 -50 16 -24 46 -25 81 -2 12 7 53 21 91 30 69 17 95 30 95 46 0 20 -39 25 -116 15z"></path><path id="pO03ucyC9" d="M10962 14213 c3 -25 19 -36 163 -108 164 -82 335 -179 393 -222 61 -45 122 -4 66 44 -66 55 -205 139 -353 211 -202 99 -210 102 -244 102 -25 0 -28 -3 -25 -27z"></path><path id="pIVhpi7lY" d="M11683 14233 c-32 -11 -18 -31 169 -227 57 -61 70 -69 85 -60 33 20 25 42 -44 116 -142 153 -177 182 -210 171z"></path><path id="pzs0admbw" d="M8854 14138 c-141 -124 -294 -322 -446 -577 -71 -120 -78 -140 -53 -161 21 -17 38 -1 111 108 80 119 232 319 323 426 170 199 181 216 145 230 -29 11 -43 6 -80 -26z"></path><path id="p1EZb6WmUV" d="M9785 14146 c-138 -18 -277 -57 -430 -122 -242 -102 -380 -199 -601 -419 -374 -372 -651 -794 -810 -1233 -80 -220 -123 -557 -119 -927 2 -217 9 -319 25 -360 6 -15 10 -41 10 -59 0 -30 21 -138 50 -261 7 -27 21 -68 31 -91 11 -23 19 -49 19 -59 0 -38 97 -269 133 -315 10 -14 46 -68 80 -122 34 -53 79 -122 99 -155 21 -32 44 -67 50 -78 96 -153 130 -202 182 -267 43 -55 68 -77 84 -78 29 0 38 24 25 72 l-10 39 71 -68 c164 -155 324 -268 501 -352 100 -48 301 -118 405 -141 220 -49 234 -50 500 -55 279 -5 431 16 675 92 188 59 363 144 548 266 307 201 625 617 788 1027 22 58 50 122 60 142 48 94 130 383 159 558 6 41 16 97 21 125 25 130 18 663 -11 845 -5 36 -14 94 -20 130 -15 106 -26 160 -49 243 -36 130 -50 166 -126 322 -195 396 -434 718 -664 891 -104 78 -323 200 -454 253 -178 72 -368 119 -597 148 -170 20 -498 25 -625 9z m440 -301 c244 -23 318 -38 495 -100 182 -64 310 -133 467 -253 96 -74 261 -244 328 -337 67 -95 227 -361 280 -465 45 -91 113 -262 126 -320 4 -19 14 -64 23 -100 8 -36 20 -92 27 -125 6 -33 15 -73 20 -90 5 -16 11 -59 13 -95 3 -36 10 -128 16 -205 19 -238 -7 -524 -67 -755 -60 -229 -147 -429 -263 -601 -223 -329 -525 -602 -845 -762 -214 -107 -300 -137 -483 -171 -328 -61 -738 3 -1073 169 -363 179 -693 525 -905 948 -100 199 -161 372 -194 547 -6 36 -16 85 -21 110 -43 217 -40 676 6 870 4 14 10 43 15 65 47 208 96 352 174 506 185 366 502 719 825 919 105 65 238 131 341 168 98 35 277 71 365 73 33 1 74 5 90 9 44 11 75 11 240 -5z"></path><path id="p1BtSvDx98" d="M11976 13832 c-7 -11 32 -96 82 -182 176 -297 305 -612 392 -950 17 -67 51 -182 61 -207 11 -29 25 -29 40 -2 28 54 -63 426 -174 709 -87 224 -253 540 -320 613 -25 26 -70 37 -81 19z"></path><path id="pzOmLM1gB" d="M7497 13653 c-55 -96 -77 -145 -174 -383 -122 -301 -198 -587 -257 -975 -30 -196 -46 -628 -27 -740 6 -35 9 -40 31 -37 54 8 55 11 69 349 5 122 12 248 16 280 11 111 27 228 35 273 5 25 14 74 20 110 29 168 56 273 112 445 68 208 120 339 222 563 64 140 68 168 30 182 -14 6 -27 10 -29 10 -2 0 -23 -35 -48 -77z"></path><path id="plD7y8wjP" d="M11795 13640 c-8 -13 5 -35 74 -133 98 -139 208 -361 291 -587 41 -114 72 -198 93 -254 l11 -29 18 23 c10 12 18 33 18 46 0 37 -32 170 -60 249 -109 304 -224 517 -353 653 -40 40 -78 54 -92 32z"></path><path id="pDxdb6qdC" d="M6403 13518 c-14 -17 -26 -100 -17 -121 4 -10 17 -17 34 -17 21 0 33 8 48 34 29 49 34 70 20 89 -18 23 -71 33 -85 15z"></path><path id="pBkap6DAB" d="M13128 13374 c-3 -3 -2 -17 2 -32 48 -155 120 -437 139 -542 6 -36 18 -101 27 -145 9 -44 18 -94 21 -112 6 -37 26 -58 48 -49 30 11 15 170 -40 441 -44 211 -91 373 -123 423 -13 20 -60 31 -74 16z"></path><path id="p1Hn9nVFWV" d="M12544 13248 c8 -46 23 -106 36 -153 19 -68 47 -184 59 -245 10 -55 38 -223 51 -305 5 -33 14 -89 19 -125 38 -236 54 -470 55 -820 1 -229 1 -235 21 -232 11 2 23 7 27 10 28 28 33 576 8 827 -18 184 -30 279 -40 340 -6 33 -15 85 -20 115 -27 170 -39 223 -90 415 -22 81 -55 169 -73 193 -5 6 -21 12 -35 12 -22 0 -24 -3 -18 -32z"></path><path id="p11x4cJQjH" d="M6333 13248 c-16 -23 -39 -109 -62 -228 -9 -50 -16 -93 -41 -280 -35 -255 -52 -616 -40 -853 5 -103 12 -192 15 -197 8 -14 42 -13 51 1 3 6 8 109 10 228 6 379 19 545 75 921 5 36 14 92 18 125 5 33 17 105 27 161 10 55 15 108 11 117 -7 20 -50 23 -64 5z"></path><path id="psRxwdFdi" d="M8208 13206 c-15 -19 -53 -87 -84 -152 -68 -144 -70 -148 -95 -242 -17 -65 -18 -77 -6 -90 12 -12 17 -10 36 16 11 17 21 32 21 35 0 3 45 97 100 208 55 112 100 210 100 219 0 18 -19 40 -34 40 -6 0 -23 -15 -38 -34z"></path><path id="p1HXrXVPMd" d="M13844 13066 c-3 -7 4 -89 16 -182 11 -93 20 -172 20 -176 0 -10 42 -10 64 -2 21 8 21 99 2 204 -24 126 -33 147 -67 159 -23 8 -31 7 -35 -3z"></path><path id="pHbDupN9V" d="M13900 12576 c-3 -2 -2 -58 2 -123 19 -350 0 -842 -42 -1083 -5 -30 -13 -88 -16 -127 -6 -62 -4 -73 10 -79 46 -18 72 59 110 331 28 195 39 455 32 738 -3 150 -10 288 -14 307 -7 31 -12 35 -43 38 -19 2 -37 1 -39 -2z"></path><path id="pUJMTkXLT" d="M7666 12483 c-68 -224 -116 -584 -118 -883 0 -148 9 -265 24 -293 9 -18 11 -18 29 -1 18 16 19 33 19 221 0 112 4 234 10 271 5 37 14 108 21 157 6 50 18 131 26 180 8 50 18 115 22 145 5 30 16 86 26 123 9 37 14 74 11 82 -8 22 -63 19 -70 -2z"></path><path id="pgoeBLjZO" d="M13343 12357 c-8 -13 -6 -225 2 -289 6 -41 10 -48 29 -48 38 0 44 32 34 180 -4 74 -10 140 -12 146 -6 16 -45 24 -53 11z"></path><path id="pnYwWFuUZ" d="M12500 12288 c0 -29 5 -111 10 -183 33 -427 -13 -1127 -91 -1395 -24 -83 -83 -280 -117 -390 -14 -47 -27 -107 -30 -133 -4 -47 -3 -48 17 -38 58 32 215 468 195 545 -5 20 -1 33 14 49 36 40 80 266 97 502 30 424 29 593 -3 648 -14 22 -14 31 -4 47 23 37 6 345 -21 388 -5 6 -21 12 -38 12 -28 0 -29 -1 -29 -52z"></path><path id="p11ncuXu7L" d="M5993 12108 c-11 -17 -6 -607 7 -783 24 -327 35 -427 60 -590 21 -136 27 -190 23 -198 -2 -4 0 -22 6 -40 5 -17 15 -63 21 -102 6 -38 21 -110 31 -160 11 -49 22 -100 25 -113 l4 -22 27 24 c25 23 25 27 19 98 -3 40 -10 100 -16 133 -14 84 -26 174 -40 285 -38 314 -58 444 -84 545 -12 49 -15 133 -16 455 -1 217 -4 413 -8 435 -6 30 -12 41 -29 43 -11 2 -25 -3 -30 -10z"></path><path id="ptzIbEET3" d="M13345 11793 c-27 -437 -56 -752 -85 -905 -11 -56 -5 -94 15 -102 26 -10 46 35 66 144 5 30 14 78 20 105 5 28 14 100 19 160 5 61 14 142 20 180 5 39 13 165 16 282 8 228 5 243 -41 243 -22 0 -23 -4 -30 -107z"></path><path id="pOiXL1Mur" d="M6830 11692 c0 -102 10 -152 31 -152 30 0 40 35 37 123 l-3 82 -32 3 -33 3 0 -59z"></path><path id="pXzyIDLDv" d="M6260 11374 c0 -128 29 -413 53 -519 12 -56 23 -75 43 -75 24 0 26 45 9 227 -9 98 -20 226 -24 284 -10 120 -21 149 -56 149 -24 0 -25 -3 -25 -66z"></path><path id="pGm2ZVutp" d="M7087 11343 c-10 -9 -8 -164 2 -263 6 -47 15 -148 21 -225 7 -77 18 -181 25 -231 18 -122 80 -304 104 -304 20 0 18 63 -4 195 -13 77 -26 147 -29 155 -3 8 -8 49 -11 90 -2 41 -11 140 -20 220 -8 80 -15 170 -15 201 0 31 -5 81 -11 112 -10 49 -15 57 -34 57 -12 0 -25 -3 -28 -7z"></path><path id="p6nqgtMUE" d="M6820 11279 c0 -83 18 -339 30 -424 5 -38 14 -108 20 -155 23 -175 33 -230 66 -350 8 -30 23 -50 36 -50 13 0 5 199 -12 310 -34 230 -47 365 -55 555 -7 174 -8 175 -50 175 l-35 0 0 -61z"></path><path id="pJt9LVTNI" d="M12755 11313 c-4 -10 -11 -56 -15 -103 -16 -169 -50 -404 -84 -580 -35 -181 -56 -279 -67 -310 -17 -48 -59 -225 -59 -247 0 -12 9 -27 19 -33 16 -8 23 -6 35 12 9 12 16 28 16 35 0 8 13 53 29 101 15 48 33 106 40 130 28 108 29 111 60 272 5 30 17 89 25 130 8 41 12 87 9 101 -3 15 0 35 5 46 20 37 58 417 45 450 -8 19 -50 16 -58 -4z"></path><path id="p13oSmIhNh" d="M7579 11163 c-9 -98 16 -215 47 -222 16 -3 17 5 11 91 -3 52 -11 107 -16 121 -12 30 -40 36 -42 10z"></path><path id="plWIu1Nf" d="M13557 11144 c-8 -8 2 -54 16 -72 13 -17 37 3 37 32 0 34 -34 59 -53 40z"></path><path id="pIBVtz9eQ" d="M13529 11013 c-5 -16 -14 -39 -19 -53 -17 -48 -32 -129 -32 -175 0 -74 35 -95 62 -37 23 49 59 233 52 268 -7 36 -49 33 -63 -3z"></path><path id="p1BOhtIRVL" d="M13783 11033 c-7 -2 -15 -21 -18 -41 -3 -20 -10 -66 -16 -102 -15 -97 -59 -290 -129 -574 -22 -87 -26 -151 -10 -161 16 -10 47 12 53 37 3 13 17 64 31 113 55 187 64 221 75 275 56 276 77 419 68 444 -6 16 -29 20 -54 9z"></path><path id="p4umnxcOP" d="M7659 10758 c-2 -21 1 -40 13 -85 8 -33 15 -43 31 -43 17 0 19 5 14 39 -2 21 -11 51 -18 67 -15 30 -38 43 -40 22z"></path><path id="pP0EmZzcl" d="M13004 10732 c-12 -9 -24 -33 -27 -52 -12 -88 -31 -171 -86 -389 -44 -173 -57 -240 -50 -253 18 -33 45 -3 78 86 31 87 69 226 90 331 7 33 16 74 22 91 5 17 9 46 9 65 0 19 4 49 9 66 8 26 6 37 -7 53 -16 19 -18 19 -38 2z"></path><path id="p9q0PEYsG" d="M12235 10708 c-4 -12 -64 -178 -107 -298 -11 -30 -44 -105 -74 -166 -30 -62 -54 -116 -54 -121 0 -4 -26 -56 -58 -113 -97 -175 -120 -250 -77 -250 19 0 124 158 165 249 32 69 48 102 109 216 99 185 173 407 157 471 -5 17 -13 24 -32 24 -13 0 -27 -6 -29 -12z"></path><path id="psV01ewt6" d="M7380 10580 c0 -93 50 -363 93 -500 21 -66 26 -75 48 -75 22 0 24 3 22 45 -3 48 -15 114 -43 225 -10 39 -23 102 -29 140 -26 149 -33 177 -52 196 -30 30 -39 23 -39 -31z"></path><path id="pbZi4YNew" d="M13223 10552 c-7 -4 -38 -109 -68 -232 -59 -236 -62 -248 -95 -346 -11 -33 -20 -73 -20 -87 0 -15 -11 -44 -25 -65 -32 -49 -105 -243 -105 -280 0 -16 6 -35 14 -41 18 -15 31 3 77 104 43 95 69 172 69 207 0 15 4 28 8 28 12 0 28 38 72 170 81 246 129 474 110 525 -10 26 -17 30 -37 17z"></path><path id="pINeHAUZI" d="M7905 10523 c-11 -31 33 -188 74 -263 13 -24 40 -24 49 1 12 33 -5 110 -43 197 -25 57 -38 76 -54 77 -11 1 -23 -5 -26 -12z"></path><path id="pr13bnbsd" d="M6375 10470 c-10 -16 14 -241 36 -340 6 -25 14 -63 19 -85 31 -140 53 -228 70 -280 10 -33 33 -107 50 -165 39 -130 62 -196 93 -280 14 -36 43 -112 64 -170 43 -113 99 -214 114 -204 24 14 0 133 -71 344 -21 63 -45 133 -53 155 -9 22 -25 74 -38 115 -12 41 -28 95 -37 120 -8 25 -18 60 -23 78 -5 17 -13 47 -18 65 -5 17 -19 66 -30 107 -19 68 -50 205 -71 320 -32 170 -78 264 -105 220z"></path><path id="pRwPZrXJY" d="M7700 10316 c0 -13 7 -29 15 -36 12 -10 15 -9 15 8 0 27 -10 52 -21 52 -5 0 -9 -11 -9 -24z"></path><path id="pEvhRq8vO" d="M13455 10298 c-3 -7 -18 -58 -34 -113 -101 -347 -141 -471 -191 -595 -53 -130 -61 -180 -30 -180 57 0 191 319 289 690 33 123 38 179 19 198 -16 16 -47 15 -53 0z"></path><path id="pDry33mYs" d="M12139 10088 c-8 -7 -20 -29 -26 -48 -5 -19 -16 -54 -23 -77 -28 -91 21 -91 63 -1 33 73 40 107 26 124 -14 17 -21 17 -40 2z"></path><path id="pEzOfAoVx" d="M7775 10050 c-6 -10 25 -133 88 -345 37 -126 72 -180 102 -155 10 8 13 20 9 29 -7 17 -26 79 -69 226 -14 50 -30 99 -34 110 -5 11 -17 47 -28 80 -14 47 -23 61 -40 63 -11 2 -24 -2 -28 -8z"></path><path id="psEwugjM" d="M12502 9998 c-24 -51 -42 -97 -66 -173 -22 -66 -24 -82 -13 -93 21 -20 42 -5 70 51 27 57 67 179 67 207 0 16 -18 30 -39 30 -4 0 -13 -10 -19 -22z"></path><path id="pdnOEWgbH" d="M7020 9947 c0 -24 4 -57 9 -73 5 -16 17 -55 26 -86 13 -46 21 -58 37 -58 18 0 19 4 12 67 -4 37 -14 94 -24 128 -13 47 -21 61 -38 63 -20 3 -22 -1 -22 -41z"></path><path id="pJwZsvyKq" d="M7284 9926 c-6 -15 54 -253 85 -339 51 -140 55 -147 78 -147 46 0 41 40 -31 254 -37 111 -74 211 -82 224 -16 25 -42 29 -50 8z"></path><path id="pM57xGI0k" d="M8116 9838 c10 -73 120 -344 150 -368 28 -24 47 26 25 68 -6 9 -24 55 -42 102 -68 179 -95 235 -118 238 -20 3 -21 0 -15 -40z"></path><path id="p1DllcgoZ1" d="M13670 9865 c0 -49 -154 -435 -260 -649 -88 -179 -112 -248 -92 -268 22 -22 45 4 97 108 84 167 223 501 280 669 9 28 19 74 22 103 6 51 5 52 -21 52 -16 0 -26 -5 -26 -15z"></path><path id="p4OJYLrf7" d="M12740 9808 c-11 -24 -20 -49 -20 -57 0 -8 -7 -22 -15 -31 -17 -18 -11 -50 10 -50 21 0 41 33 58 96 21 75 21 84 2 84 -9 0 -25 -19 -35 -42z"></path><path id="pBrur4k4J" d="M6216 9824 c-20 -19 -20 -18 4 -122 47 -198 203 -662 290 -857 51 -114 60 -133 74 -144 21 -17 56 3 56 32 0 12 -23 81 -51 152 -85 219 -135 356 -163 450 -15 50 -31 101 -36 115 -12 33 -47 158 -53 190 -11 55 -38 143 -52 171 -17 32 -45 38 -69 13z"></path><path id="p7YnFQdB3" d="M6822 9728 c-6 -9 -7 -30 0 -63 5 -27 12 -70 16 -95 6 -36 11 -46 29 -48 33 -5 45 26 33 87 -8 42 -51 131 -64 131 -2 0 -8 -6 -14 -12z"></path><path id="pUlbpMZqf" d="M7617 9605 c-18 -44 141 -453 185 -476 23 -13 51 16 42 45 -13 45 -156 402 -170 424 -16 25 -49 29 -57 7z"></path><path id="phfGz8Qip" d="M7325 9420 c-10 -16 4 -49 58 -140 116 -195 309 -425 544 -648 133 -126 303 -272 317 -272 3 0 32 -20 63 -44 52 -38 247 -172 298 -203 16 -10 188 -106 257 -144 10 -5 27 -9 39 -9 12 0 45 -26 82 -64 69 -71 100 -84 136 -57 35 27 16 51 -102 128 -106 69 -141 92 -347 233 -138 94 -138 93 -354 265 -304 242 -603 543 -761 765 -22 31 -56 78 -75 105 -56 79 -75 95 -114 95 -19 0 -38 -5 -41 -10z"></path><path id="pinYnnSMt" d="M12733 9373 c-17 -13 -80 -81 -140 -150 -200 -233 -296 -337 -483 -523 -285 -283 -466 -443 -667 -585 -80 -57 -100 -86 -84 -121 10 -22 16 -25 38 -19 31 7 261 158 342 223 335 271 654 591 1003 1004 54 64 98 123 98 131 0 11 -30 39 -65 59 -5 3 -24 -5 -42 -19z"></path><path id="p1AK5cYcs9" d="M6938 9343 c-10 -2 -18 -11 -18 -19 0 -22 90 -214 114 -246 12 -15 32 -43 46 -63 14 -21 39 -54 56 -74 17 -20 35 -43 40 -53 19 -33 142 -167 278 -302 295 -291 606 -512 988 -703 81 -40 150 -73 153 -73 3 0 25 -8 48 -19 116 -52 147 -65 212 -87 39 -13 86 -29 105 -35 19 -6 50 -18 68 -26 29 -14 34 -14 58 1 28 19 30 53 4 67 -8 4 -55 24 -105 43 -246 94 -527 230 -705 340 -510 315 -877 658 -1211 1132 -65 92 -101 131 -112 123 -1 -1 -10 -3 -19 -6z"></path><path id="pu18aWy8r" d="M13107 9308 c-9 -25 -201 -274 -271 -353 -173 -195 -505 -506 -730 -683 -69 -55 -249 -175 -346 -231 -41 -24 -86 -51 -100 -61 -14 -9 -75 -44 -135 -79 -61 -34 -122 -71 -135 -81 -24 -18 -25 -20 -8 -47 9 -15 26 -29 37 -31 26 -4 283 124 449 224 271 163 518 360 792 634 177 176 208 209 311 335 113 137 229 325 229 370 0 19 -85 22 -93 3z"></path><path id="pM2bdvP7h" d="M9580 8366 c-67 -18 -92 -31 -121 -62 -39 -43 -43 -65 -16 -105 27 -40 52 -42 137 -10 81 30 127 27 207 -14 160 -82 253 -273 253 -519 l0 -105 -67 -31 c-158 -74 -345 -202 -417 -287 -88 -103 -121 -191 -113 -301 8 -108 47 -182 134 -256 110 -93 211 -137 372 -162 309 -47 589 20 735 176 53 56 96 143 96 193 0 18 4 47 9 65 8 26 5 48 -14 104 -31 90 -80 165 -169 254 -83 84 -162 137 -304 206 -98 47 -103 51 -98 76 3 15 8 61 11 102 14 157 73 309 156 404 88 99 228 135 333 85 48 -22 49 -22 83 -4 113 61 39 147 -167 193 -102 23 -251 -30 -335 -117 -58 -61 -112 -134 -135 -184 l-17 -38 -38 66 c-51 87 -130 173 -196 212 -97 58 -230 82 -319 59z m898 -1552 c5 -36 -103 -73 -235 -79 -73 -3 -101 1 -156 19 -68 23 -96 40 -84 52 3 4 89 8 189 9 112 1 193 6 208 13 38 17 74 11 78 -14z"></path><path id="pHAx6E9mO" d="M13117 8134 c-47 -50 -67 -80 -103 -151 -18 -34 -13 -63 10 -63 55 0 192 241 149 263 -5 2 -30 -20 -56 -49z"></path><path id="pIVarlBmN" d="M10743 7800 c-40 -24 -42 -51 -6 -85 31 -28 36 -29 63 -15 45 24 45 73 1 107 -21 16 -21 16 -58 -7z"></path><path id="p82xFPr3n" d="M9581 7801 c-48 -13 -43 -92 7 -99 33 -5 72 24 72 53 0 21 -33 57 -50 54 -3 -1 -16 -4 -29 -8z"></path><path id="p1E5TEOwb8" d="M7237 7793 c-12 -11 -8 -70 6 -80 16 -13 138 -42 208 -50 30 -3 59 -10 66 -15 14 -11 54 -1 65 16 27 40 -24 70 -190 112 -95 24 -143 30 -155 17z"></path><path id="pExP94sAF" d="M11035 7608 c-27 -15 -35 -28 -35 -58 0 -35 17 -50 57 -50 42 0 77 32 67 63 -15 51 -49 68 -89 45z"></path><path id="pm15MtO6s" d="M9335 7540 c-52 -20 -57 -85 -10 -110 20 -11 28 -10 50 4 14 9 30 29 36 44 9 23 7 30 -16 49 -29 25 -31 26 -60 13z"></path><path id="pmBySekhg" d="M8620 7465 c-91 -6 -169 -10 -173 -8 -12 7 -150 -19 -164 -30 -19 -14 -16 -64 3 -71 9 -4 44 -4 78 -1 33 3 113 7 176 9 133 5 306 30 326 47 20 16 17 47 -5 59 -22 11 -17 11 -241 -5z"></path><path id="pZo19FIS3" d="M7817 7433 c-20 -5 -18 -40 2 -35 8 2 10 -4 6 -17 -7 -22 22 -33 66 -24 21 4 28 12 32 37 2 17 3 34 0 39 -4 7 -76 8 -106 0z"></path><path id="pnZBlizG0" d="M7991 7426 c-14 -16 2 -66 21 -67 25 -2 123 -2 156 -1 37 2 57 34 40 65 -7 14 -24 17 -107 17 -72 0 -102 -4 -110 -14z"></path><path id="pkonZvORT" d="M8461 7018 c-53 -20 -124 -85 -151 -138 -16 -32 -31 -87 -44 -165 -6 -34 10 -131 31 -191 18 -51 48 -84 120 -130 44 -28 70 -37 124 -43 61 -6 74 -4 126 19 91 42 145 108 179 219 25 85 11 208 -34 297 -23 45 -102 120 -142 136 -44 17 -158 15 -209 -4z"></path><path id="pHwK4mZbe" d="M11521 7028 c-54 -14 -134 -89 -162 -152 -26 -60 -41 -180 -30 -248 12 -72 52 -156 93 -194 50 -46 105 -76 143 -77 19 -1 35 -4 35 -8 0 -16 93 0 142 25 93 47 144 122 168 247 11 57 11 75 -4 139 -9 41 -27 93 -41 116 -27 46 -117 131 -152 145 -39 14 -146 18 -192 7z"></path><path id="p1Cl3kn7mD" d="M9797 6213 c-43 -83 -64 -185 -41 -203 39 -34 108 87 102 179 -3 39 -7 47 -25 49 -16 2 -26 -5 -36 -25z"></path><path id="p36wpLAb2" d="M10284 6169 c-4 -6 -7 -42 -6 -79 0 -49 6 -80 24 -116 29 -62 50 -64 61 -4 8 45 3 164 -9 194 -7 18 -59 22 -70 5z"></path><path id="pZyBFq23u" d="M10483 6164 c-10 -27 15 -163 39 -205 41 -74 77 -41 59 53 -20 104 -44 163 -69 166 -14 2 -25 -3 -29 -14z"></path><path id="pPFHW69Gj" d="M10110 6116 c-15 -55 -6 -86 25 -86 18 0 24 7 29 36 17 89 -30 133 -54 50z"></path><path id="paKlf5wzA" d="M9972 6108 c-9 -11 -26 -90 -27 -123 0 -14 37 -6 58 12 22 21 22 55 -2 93 -14 24 -20 28 -29 18z"></path><path id="p63lkbGeD" d="M9874 5825 c-35 -15 -47 -40 -69 -147 -18 -94 -19 -112 -2 -127 18 -14 49 18 73 74 20 47 46 197 36 207 -4 3 -21 1 -38 -7z"></path><path id="ptXs3u3wY" d="M10184 5825 c-9 -22 2 -162 16 -207 12 -42 54 -63 71 -37 12 19 10 100 -4 184 -12 69 -13 70 -45 73 -22 2 -34 -2 -38 -13z"></path><path id="phzK7TR7T" d="M10713 5796 c7 -43 54 -146 66 -146 45 0 53 38 20 103 -28 56 -48 77 -72 77 -17 0 -19 -5 -14 -34z"></path><path id="psom0UUp7" d="M9571 5717 c-38 -87 -41 -154 -6 -149 30 5 52 39 65 102 15 69 10 114 -11 118 -11 2 -25 -18 -48 -71z"></path><path id="p13UKfS8TP" d="M10410 5721 c-11 -22 -4 -66 27 -149 17 -46 57 -68 74 -41 11 17 2 87 -20 154 -13 42 -20 51 -43 53 -19 2 -30 -3 -38 -17z"></path><path id="pwnwBAMBz" d="M7735 16239 c-148 -3 -271 -6 -272 -7 -12 -9 0 -51 15 -54 32 -9 365 2 452 14 73 10 110 24 110 41 0 11 -49 12 -305 6z"></path><path id="pBNXMhhSh" d="M7250 16232 c-74 -1 -139 -7 -143 -11 -5 -5 -25 -7 -43 -4 -34 6 -69 -11 -58 -28 3 -5 104 -9 225 -9 l220 0 -3 27 c-3 31 11 30 -198 25z"></path><path id="pnpqEoZeD" d="M8270 16143 c-85 -6 -202 -15 -260 -18 -133 -9 -166 -18 -173 -51 -2 -13 0 -27 6 -31 12 -7 364 5 474 17 87 9 165 43 171 72 4 23 -39 25 -218 11z"></path><path id="p150k6HbN4" d="M5897 16134 c-42 -5 -79 -13 -83 -16 -3 -4 -3 -15 0 -26 6 -17 22 -22 107 -32 127 -16 354 -9 389 11 49 28 47 55 -3 64 -63 10 -336 10 -410 -1z"></path><path id="pvgvJuVFc" d="M13360 16120 c-84 -8 -113 -19 -106 -37 3 -8 6 -21 6 -28 0 -24 68 -34 281 -41 245 -8 344 -1 378 27 33 27 23 64 -21 74 -44 9 -456 13 -538 5z"></path><path id="pnHOsa5c9" d="M12295 16104 c-106 -18 -130 -28 -133 -51 -2 -14 4 -26 17 -33 25 -13 228 -16 511 -7 361 12 412 18 418 51 5 26 -8 35 -59 43 -77 13 -677 10 -754 -3z"></path><path id="p1FuGEVfW0" d="M4454 15962 c-11 -11 -27 -34 -34 -52 -12 -28 -11 -40 9 -99 38 -117 129 -187 293 -227 187 -46 430 58 510 217 41 82 41 122 -2 144 -36 19 -91 19 -150 1 -47 -14 -186 -9 -365 13 -189 23 -239 23 -261 3z"></path><path id="p17KFVlnp2" d="M5610 15941 c-66 -5 -75 -8 -75 -26 0 -41 46 -50 240 -50 211 1 247 11 212 59 -11 15 -32 18 -157 20 -80 2 -179 0 -220 -3z"></path><path id="pv1r3GAsS" d="M12800 15924 c-63 -6 -116 -12 -118 -13 -8 -3 22 -43 41 -56 33 -21 197 -33 622 -46 592 -17 1018 -17 1038 0 21 17 22 35 3 54 -11 11 -81 15 -353 21 -384 7 -698 20 -888 36 -204 17 -223 17 -345 4z"></path><path id="pPHwQgZhZ" d="M14702 15738 c5 -15 48 -18 48 -3 0 6 -11 11 -26 13 -18 3 -25 0 -22 -10z"></path><path id="pJQSZYFrf" d="M14960 15730 c0 -11 6 -22 13 -25 6 -2 73 -6 147 -10 74 -3 153 -7 175 -9 22 -2 79 -7 127 -11 48 -4 113 -4 143 0 50 6 55 9 55 31 0 19 -5 24 -27 25 -72 2 -182 9 -216 14 -21 3 -56 1 -78 -5 -26 -7 -45 -8 -52 -2 -7 6 -74 11 -149 11 -133 2 -138 1 -138 -19z"></path><path id="p15gy4GPfV" d="M14131 15706 c-49 -10 -84 -36 -69 -51 12 -12 255 -9 321 4 69 14 94 34 66 52 -19 12 -251 9 -318 -5z"></path><path id="p0DsZpvNW" d="M15933 15660 c-23 -10 -31 -44 -13 -55 15 -9 202 -7 212 3 13 13 -1 39 -25 46 -44 12 -153 16 -174 6z"></path><path id="p1DB588NjQ" d="M13058 15647 c-60 -17 -45 -38 37 -55 63 -14 333 -14 341 0 3 5 17 7 30 4 40 -10 74 3 74 29 0 13 -6 25 -13 28 -26 10 -432 5 -469 -6z"></path></g></g></svg>