<svg height="79" viewBox="0 0 74 79" width="74" xmlns="http://www.w3.org/2000/svg" fill="var(--text)"><path d="m73.7014 17.4323c-1.1398-8.38078-8.524-14.9854-17.2774-16.2652-1.4768-.216257-7.0722-1.003282-20.0339-1.003282h-.0968c-12.9652 0-15.7468.787025-17.2236 1.003282-8.5097 1.24435-16.28093 7.17894-18.166394 15.6589-.90688454 4.1762-1.003667 8.8062-.835194 13.0533.240163 6.0906.286762 12.1705.845948 18.2363.38658 4.0292 1.06096 8.0263 2.01809 11.9613 1.79226 7.2676 9.04735 13.3156 16.15545 15.7831 7.6103 2.5732 15.7945 3.0003 23.6364 1.2337.8626-.1985 1.7158-.429 2.5593-.6913 1.9034-.5991 4.1366-1.2692 5.7783-2.4462.0225-.0165.041-.0378.054-.0624.013-.0245.0203-.0517.0212-.0794v-5.8778c-.0004-.0259-.0066-.0514-.0182-.0746-.0117-.0232-.0284-.0436-.0491-.0595-.0206-.016-.0446-.0272-.0701-.0329-.0256-.0056-.0521-.0055-.0776.0003-5.0242 1.187-10.1727 1.782-15.3382 1.7726-8.8896 0-11.2805-4.1726-11.9652-5.9098-.5503-1.5013-.8998-3.0673-1.0395-4.6583-.0014-.0267.0036-.0534.0145-.0779.0109-.0244.0276-.046.0485-.0629.021-.0169.0457-.0287.0721-.0344.0264-.0058.0538-.0052.08.0015 4.9405 1.1789 10.005 1.7739 15.0873 1.7726 1.2223 0 2.441 0 3.6634-.0319 5.1115-.1418 10.499-.4006 15.5281-1.372.1255-.0248.2509-.0461.3585-.078 7.9325-1.5067 15.4815-6.2359 16.2486-18.2115.0287-.4715.1004-4.9384.1004-5.4276.0036-1.6627.5413-11.7947-.0789-18.02zm-12.2089 29.8821h-8.3411v-20.2074c0-4.2542-1.7923-6.4238-5.4378-6.4238-4.0075 0-6.0148 2.5667-6.0148 7.6362v11.0609h-8.291v-11.0609c0-5.0695-2.0109-7.6362-6.0184-7.6362-3.624 0-5.4342 2.1696-5.4378 6.4238v20.2074h-8.334v-20.8207c0-4.2542 1.0981-7.6339 3.2942-10.1392 2.2654-2.4993 5.237-3.7826 8.9255-3.7826 4.2691 0 7.4952 1.6236 9.6459 4.8675l2.0755 3.4459 2.079-3.4459c2.1507-3.2439 5.3768-4.8675 9.6388-4.8675 3.6849 0 6.6564 1.2833 8.929 3.7826 2.1962 2.5029 3.2942 5.8826 3.2942 10.1392z"/></svg>