<svg viewBox="0 0 1200 1200" fill="none" xmlns="http://www.w3.org/2000/svg">
<mask id="mask0_806_2" style="mask-type:alpha" maskUnits="userSpaceOnUse" x="172" y="172" width="856" height="856">
<path fill-rule="evenodd" clip-rule="evenodd" d="M437.217 172H762.854C855.088 172 888.472 181.631 922.213 199.608C955.953 217.657 982.347 244.124 1000.39 277.796C1018.44 311.54 1028 344.926 1028 437.168V762.832C1028 855.074 1018.37 888.46 1000.39 922.204C982.347 955.947 955.882 982.343 922.213 1000.39C888.472 1018.44 855.088 1028 762.854 1028H437.217C344.983 1028 311.599 1018.37 277.859 1000.39C244.118 982.343 217.725 955.876 199.677 922.204C181.63 888.532 172 855.074 172 762.832V437.239C172 344.998 181.63 311.611 199.606 277.867C217.653 244.124 244.118 217.657 277.859 199.608C311.528 181.631 344.983 172 437.217 172Z" fill="black"/>
</mask>
<g mask="url(#mask0_806_2)">
<rect x="172" y="172" width="856" height="856" fill="#33255B"/>
</g>
<ellipse cx="415.004" cy="435" rx="65" ry="70" />
<ellipse cx="785.004" cy="435" rx="65" ry="70" />
<path d="M686.403 584.52C686.403 609.391 647.339 651.722 599.152 651.722C550.964 651.722 511.901 609.391 511.901 584.52C511.901 559.648 550.964 539.486 599.152 539.486C647.339 539.486 686.403 559.648 686.403 584.52Z" />
<path fill-rule="evenodd" clip-rule="evenodd" d="M599.152 622.544C612.96 622.544 624.152 633.737 624.152 647.544V698.527C624.152 738.023 595.304 776.308 558.523 798.321C520.274 821.213 468.436 829.944 416.475 805.28C404.002 799.359 398.69 784.448 404.611 771.974C410.532 759.501 425.443 754.189 437.916 760.11C472.649 776.597 506.788 771.013 532.845 755.418C560.369 738.945 574.152 714.57 574.152 698.527V647.544C574.152 633.737 585.345 622.544 599.152 622.544Z" />
<path fill-rule="evenodd" clip-rule="evenodd" d="M600.424 622.544C586.617 622.544 575.424 633.737 575.424 647.544V698.527C575.424 738.023 604.273 776.308 641.054 798.321C679.302 821.213 731.141 829.944 783.101 805.28C795.575 799.359 800.886 784.448 794.966 771.974C789.045 759.501 774.134 754.189 761.66 760.11C726.928 776.597 692.788 771.013 666.731 755.418C639.207 738.945 625.424 714.57 625.424 698.527V647.544C625.424 633.737 614.231 622.544 600.424 622.544Z" />
<path fill-rule="evenodd" clip-rule="evenodd" d="M73.3947 658.479C154.743 610.962 251.966 575 352.29 575C366.098 575 377.29 586.193 377.29 600C377.29 613.807 366.098 625 352.29 625C263.57 625 175.086 656.985 98.6134 701.654C86.6912 708.618 71.3809 704.598 64.4169 692.676C57.453 680.754 61.4724 665.443 73.3947 658.479Z" />
<path fill-rule="evenodd" clip-rule="evenodd" d="M377.098 666.306C378.756 680.014 368.987 692.469 355.28 694.126C315.106 698.983 267.613 722.465 222.75 755.67C178.245 788.61 139.175 829.006 115.55 864.029C107.829 875.475 92.2901 878.495 80.8438 870.774C69.3975 863.052 66.3779 847.514 74.0992 836.067C101.391 795.609 144.69 751.24 193.004 715.481C240.96 679.987 296.735 650.84 349.279 644.487C362.986 642.83 375.441 652.599 377.098 666.306Z" />
<path fill-rule="evenodd" clip-rule="evenodd" d="M397.415 719.764C402.863 732.451 396.995 747.152 384.308 752.6C358.238 763.796 333.476 788.556 314.204 820.958C295.072 853.126 282.939 890.225 280.285 922.597C279.157 936.358 267.087 946.599 253.326 945.471C239.565 944.343 229.324 932.273 230.452 918.512C233.789 877.799 248.614 833.426 271.231 795.399C293.709 757.605 325.489 723.444 364.578 706.658C377.265 701.209 391.966 707.077 397.415 719.764Z" />
<path fill-rule="evenodd" clip-rule="evenodd" d="M1127.5 658.479C1046.15 610.962 948.924 575 848.6 575C834.793 575 823.6 586.193 823.6 600C823.6 613.807 834.793 625 848.6 625C937.321 625 1025.8 656.985 1102.28 701.654C1114.2 708.618 1129.51 704.598 1136.47 692.676C1143.44 680.754 1139.42 665.443 1127.5 658.479Z" />
<path fill-rule="evenodd" clip-rule="evenodd" d="M823.788 666.306C822.131 680.014 831.9 692.469 845.607 694.126C885.781 698.983 933.273 722.465 978.137 755.67C1022.64 788.61 1061.71 829.006 1085.34 864.029C1093.06 875.475 1108.6 878.495 1120.04 870.774C1131.49 863.052 1134.51 847.514 1126.79 836.067C1099.5 795.609 1056.2 751.24 1007.88 715.481C959.927 679.987 904.151 650.84 851.608 644.487C837.901 642.83 825.445 652.599 823.788 666.306Z" />
<path fill-rule="evenodd" clip-rule="evenodd" d="M803.472 719.764C798.024 732.451 803.892 747.152 816.579 752.6C842.648 763.796 867.411 788.556 886.682 820.958C905.815 853.126 917.948 890.225 920.601 922.597C921.729 936.358 933.799 946.599 947.56 945.471C961.321 944.343 971.562 932.273 970.434 918.512C967.097 877.799 952.273 833.426 929.656 795.399C907.178 757.605 875.398 723.444 836.308 706.658C823.622 701.209 808.92 707.077 803.472 719.764Z" />
<circle cx="20" cy="20" r="20" transform="matrix(0.939693 0.34202 0.34202 -0.939693 474.377 688.542)" />
<circle cx="20" cy="20" r="20" transform="matrix(0.939693 0.34202 0.34202 -0.939693 424.868 655.047)" />
<circle cx="700.84" cy="676.588" r="20" transform="rotate(160 700.84 676.588)" />
<circle cx="750.346" cy="643.094" r="20" transform="rotate(160 750.346 643.094)" />
<style>
    circle, ellipse, path {
      fill: hsl(251 48.1% 53.5%); /* --accent10 */
    }
    rect {
      fill: hsl(252 91.5% 95.5%); /* --accent4 */
    }
    @media (prefers-color-scheme: dark){
      circle, ellipse, path {
        fill: hsl(255 100% 80%); /* --accent11 */
      }
      rect {
        fill: hsl(253 34.6% 22.1%); /* --accent4 */
      }
    }
  </style>
</svg>
