<svg xmlns="http://www.w3.org/2000/svg" fill="none" viewBox="0 0 1200 1200">
<rect width="856" height="856" x="171.004" y="172" stroke="currentColor" stroke-width="60" rx="200"/>
<ellipse cx="415.004" cy="435" rx="65" ry="70"/>
<ellipse cx="785.004" cy="435" rx="65" ry="70"/><path d="M686.403 584.52c0 24.871-39.064 67.202-87.251 67.202-48.188 0-87.251-42.331-87.251-67.202 0-24.872 39.063-45.034 87.251-45.034 48.187 0 87.251 20.162 87.251 45.034Z"/>
<path fill-rule="evenodd" d="M599.152 622.544c13.808 0 25 11.193 25 25v50.983c0 39.496-28.848 77.781-65.629 99.794-38.249 22.892-90.087 31.623-142.048 6.959-12.473-5.921-17.785-20.832-11.864-33.306 5.921-12.473 20.832-17.785 33.305-11.864 34.733 16.487 68.872 10.903 94.929-4.692 27.524-16.473 41.307-40.848 41.307-56.891v-50.983c0-13.807 11.193-25 25-25Z" clip-rule="evenodd"/>
<path fill-rule="evenodd" d="M600.424 622.544c-13.807 0-25 11.193-25 25v50.983c0 39.496 28.849 77.781 65.63 99.794 38.248 22.892 90.087 31.623 142.047 6.959 12.474-5.921 17.785-20.832 11.865-33.306-5.921-12.473-20.832-17.785-33.306-11.864-34.732 16.487-68.872 10.903-94.929-4.692-27.524-16.473-41.307-40.848-41.307-56.891v-50.983c0-13.807-11.193-25-25-25ZM73.395 658.479C154.743 610.962 251.966 575 352.29 575c13.808 0 25 11.193 25 25s-11.192 25-25 25c-88.72 0-177.204 31.985-253.677 76.654-11.922 6.964-27.232 2.944-34.196-8.978-6.964-11.922-2.945-27.233 8.978-34.197ZM377.098 666.306c1.658 13.708-8.111 26.163-21.818 27.82-40.174 4.857-87.667 28.339-132.53 61.544-44.505 32.94-83.575 73.336-107.2 108.359-7.721 11.446-23.26 14.466-34.706 6.745-11.447-7.722-14.466-23.26-6.745-34.707 27.292-40.458 70.591-84.827 118.905-120.586 47.956-35.494 103.731-64.641 156.275-70.994 13.707-1.657 26.162 8.112 27.819 21.819ZM397.415 719.764c5.448 12.687-.42 27.388-13.107 32.836-26.07 11.196-50.832 35.956-70.104 68.358-19.132 32.168-31.265 69.267-33.919 101.639-1.128 13.761-13.198 24.002-26.959 22.874-13.761-1.128-24.002-13.198-22.874-26.959 3.337-40.713 18.162-85.086 40.779-123.113 22.478-37.794 54.258-71.955 93.347-88.741 12.687-5.449 27.388.419 32.837 13.106ZM1127.5 658.479C1046.15 610.962 948.924 575 848.6 575c-13.807 0-25 11.193-25 25s11.193 25 25 25c88.721 0 177.2 31.985 253.68 76.654 11.92 6.964 27.23 2.944 34.19-8.978 6.97-11.922 2.95-27.233-8.97-34.197ZM823.788 666.306c-1.657 13.708 8.112 26.163 21.819 27.82 40.174 4.857 87.666 28.339 132.53 61.544 44.503 32.94 83.573 73.336 107.203 108.359 7.72 11.446 23.26 14.466 34.7 6.745 11.45-7.722 14.47-23.26 6.75-34.707-27.29-40.458-70.59-84.827-118.91-120.586-47.953-35.494-103.729-64.641-156.272-70.994-13.707-1.657-26.163 8.112-27.82 21.819ZM803.472 719.764c-5.448 12.687.42 27.388 13.107 32.836 26.069 11.196 50.832 35.956 70.103 68.358 19.133 32.168 31.266 69.267 33.919 101.639 1.128 13.761 13.198 24.002 26.959 22.874 13.761-1.128 24.002-13.198 22.874-26.959-3.337-40.713-18.161-85.086-40.778-123.113-22.478-37.794-54.258-71.955-93.348-88.741-12.686-5.449-27.388.419-32.836 13.106Z" clip-rule="evenodd"/>
<circle cx="20" cy="20" r="20" transform="scale(1 -1) rotate(-20 -1715.27 -1689.434)"/>
<circle cx="20" cy="20" r="20" transform="scale(1 -1) rotate(-20 -1645.045 -1532.297)"/><circle cx="700.84" cy="676.588" r="20" transform="rotate(160 700.84 676.588)"/><circle cx="750.346" cy="643.094" r="20" transform="rotate(160 750.346 643.094)"/><style>circle,ellipse,path{fill:hsl(251 48.1% 53.5%)}@media (prefers-color-scheme:dark){circle,ellipse,path{fill:#000}}</style></svg>